<svg width="59" height="35" viewBox="0 0 59 35" fill="none" xmlns="http://www.w3.org/2000/svg">
<path d="M24.3594 27.95L25.1759 27.3725L24.3594 27.95ZM31.3356 32.623L30.5193 32.0455L31.3356 32.623ZM34.6415 27.9499L33.8251 27.3723L34.6415 27.9499ZM55.7517 27V26H36.477V27V28H55.7517V27ZM34.6415 27.9499L33.8251 27.3723L30.5193 32.0455L31.3356 32.623L32.152 33.2005L35.4579 28.5274L34.6415 27.9499ZM27.6646 32.6228L28.481 32.0454L25.1759 27.3725L24.3594 27.95L23.543 28.5275L26.8482 33.2003L27.6646 32.6228ZM22.5239 27V26H3.24832V27V28H22.5239V27ZM1 24.7517H2V3.24832H1H0V24.7517H1ZM3.24832 1V2H55.7517V1V0H3.24832V1ZM58 3.24832H57V24.7517H58H59V3.24832H58ZM55.7517 1V2C56.4411 2 57 2.55889 57 3.24832H58H59C59 1.45432 57.5457 0 55.7517 0V1ZM1 3.24832H2C2 2.55889 2.55889 2 3.24832 2V1V0C1.45432 0 0 1.45432 0 3.24832H1ZM3.24832 27V26C2.55889 26 2 25.4411 2 24.7517H1H0C0 26.5457 1.45432 28 3.24832 28V27ZM24.3594 27.95L25.1759 27.3725C24.567 26.5117 23.5782 26 22.5239 26V27V28C22.9291 28 23.309 28.1967 23.543 28.5275L24.3594 27.95ZM31.3356 32.623L30.5193 32.0455C30.0218 32.7487 28.9784 32.7486 28.481 32.0454L27.6646 32.6228L26.8482 33.2003C28.1425 35.0303 30.8575 35.0304 32.152 33.2005L31.3356 32.623ZM36.477 27V26C35.4227 26 34.434 26.5117 33.8251 27.3723L34.6415 27.9499L35.4579 28.5274C35.6919 28.1966 36.0718 28 36.477 28V27ZM55.7517 27V28C57.5457 28 59 26.5457 59 24.7517H58H57C57 25.4411 56.4411 26 55.7517 26V27Z" fill="url(#paint0_linear_170_842)"/>
<defs>
<linearGradient id="paint0_linear_170_842" x1="1" y1="17.2864" x2="58" y2="17.2864" gradientUnits="userSpaceOnUse">
<stop stop-color="#EFAF00"/>
<stop offset="1" stop-color="#FF9500"/>
</linearGradient>
</defs>
</svg>
