<svg width="155" height="171" viewBox="0 0 155 171" fill="none" xmlns="http://www.w3.org/2000/svg">
<path d="M62.516 10.3648C48.5275 10.3648 27.0786 18.4056 34.5391 68.1765C34.6516 68.9259 34.7993 69.7406 34.957 70.6103C36.3159 78.0994 38.4183 89.6866 25.05 99.2421C34.1422 106.67 47.0918 114.097 62.8293 117.313C62.1947 121.011 61.2371 125.177 60.4957 127.874C59.2124 132.543 56.5334 135.856 51.7436 137.268C47.5255 138.512 43.1057 139.518 38.5757 140.55C37.4124 140.815 36.2412 141.082 35.0651 141.354C29.4131 142.664 23.6586 144.11 18.5536 146.16C13.4399 148.213 8.68316 150.984 5.24806 155.117C1.74735 159.328 -0.121732 164.641 0.00615449 171.279C0.0459708 173.345 1.82373 175 4.00308 175H162.997C165.176 175 166.953 173.345 166.994 171.28C167.123 164.641 165.254 159.329 161.753 155.117C158.319 150.984 153.562 148.213 148.448 146.16C143.343 144.11 137.587 142.664 131.935 141.354C130.76 141.082 129.589 140.815 128.426 140.55C123.895 139.518 119.475 138.512 115.256 137.268C110.466 135.856 107.787 132.543 106.504 127.874C105.622 124.665 104.43 119.378 103.842 115.271C115.876 111.666 128.664 105.19 141.95 94.8399L141.887 94.78C135.654 88.8401 123.963 77.6983 123.132 51.2588C123.132 14.8477 99.8149 -17.1559 62.516 10.3648Z" fill="#CE644C" fill-opacity="0.1"/>
</svg>
