<svg width="171" height="171" viewBox="0 0 171 171" fill="none" xmlns="http://www.w3.org/2000/svg">
<path d="M160.388 149.948C123.389 146.64 121.184 129.794 121.184 129.794V112.905C142.792 104.482 149.407 72.2454 149.407 72.2454C149.407 59.4126 143.189 59.0157 143.189 59.0157V38.201C144.6 3.40691 123.742 11.477 123.477 11.477C123.212 11.477 111.703 2.30444 111.703 2.30444C103.633 -3.91351 85.6842 4.42119 85.6842 4.42119H84.9346C64.6049 4.95037 59.3131 19.7676 59.3131 19.7676L59.6659 58.2219C49.0821 58.2219 50.4933 73.2596 50.4933 73.2596C50.4933 89.7526 79.0694 112.419 79.0694 112.419C80.8775 134.028 69.544 145.009 69.544 145.009C55.5225 145.87 41.6446 148.326 28.1792 152.329L26.4594 152.902C20.2973 155.212 14.7262 158.864 10.1498 163.592C5.5734 168.321 2.10639 174.009 0 180.244V200H198.092V184.654C198.445 161.943 160.388 149.948 160.388 149.948Z" fill="#0048FF" fill-opacity="0.05"/>
</svg>
