<svg width="58" height="58" viewBox="0 0 58 58" fill="none" xmlns="http://www.w3.org/2000/svg">
<path d="M28.6455 0C44.4661 0 57.2918 12.825 57.292 28.6455C57.292 44.4662 44.4662 57.292 28.6455 57.292C12.825 57.2918 0 44.4661 0 28.6455C0.000189666 12.8251 12.8251 0.000189678 28.6455 0ZM28.5928 42.6309C27.1316 42.6309 25.9473 43.8171 25.9473 45.2783C25.9474 46.7394 27.1316 47.9257 28.5928 47.9258C30.054 47.9258 31.2391 46.7395 31.2393 45.2783C31.2393 43.8171 30.054 42.6309 28.5928 42.6309ZM28.6318 9.41797C25.2073 9.41797 22.3758 10.4077 20.1387 12.3877C18.5678 13.7767 17.4798 15.5152 16.874 17.6025C16.4523 19.0562 17.6719 20.368 19.1855 20.3682C20.4611 20.3682 21.5082 19.4214 21.9014 18.208C22.9746 14.8961 25.2356 13.2402 28.6836 13.2402C30.8001 13.2403 32.5125 13.8856 33.8203 15.1768C35.1282 16.4509 35.7822 18.0786 35.7822 20.0586C35.7822 21.0744 35.5414 22.0387 35.0596 22.9512C34.5777 23.8465 33.338 25.1379 31.3418 26.8252C29.3631 28.5123 28.0037 30.1048 27.2637 31.6025C26.7113 32.7078 26.3647 34.2929 26.2246 36.3574C26.1397 37.609 27.1704 38.6277 28.4248 38.6279C29.6793 38.6279 30.6761 37.6083 30.7832 36.3584C30.8922 35.0862 31.1048 34.1122 31.4199 33.4365C31.9018 32.3863 33.2008 30.9827 35.3174 29.2266C37.434 27.4704 38.8708 25.8691 39.6279 24.4229C40.4023 22.9766 40.79 21.41 40.79 19.7227C40.79 16.7268 39.6708 14.2643 37.4336 12.3359C35.1965 10.3906 32.2626 9.418 28.6318 9.41797Z" fill="url(#paint0_linear_1551_1241)"/>
<defs>
<linearGradient id="paint0_linear_1551_1241" x1="0" y1="28.646" x2="57.292" y2="28.646" gradientUnits="userSpaceOnUse">
<stop stop-color="#EFAF00"/>
<stop offset="1" stop-color="#FF9500"/>
</linearGradient>
</defs>
</svg>
