<svg width="72" height="67" viewBox="0 0 72 67" fill="none" xmlns="http://www.w3.org/2000/svg">
<path d="M15.9227 3.00397L21.9311 9.01243M51.9734 10.5145L59.484 3.00391M59.484 37.5526L69.0975 40.1286M36.3514 55.578V63.9899M12.3176 37.5526L2.7041 40.1286" stroke="url(#paint0_linear_1551_1224)" stroke-width="3.60508" stroke-linecap="round"/>
<path d="M35.4045 2.37492L27.1053 16.63C26.8227 17.1155 26.3298 17.4414 25.7724 17.5115L9.11041 19.606C7.51904 19.8061 6.96184 21.8289 8.22631 22.8156L22.6208 34.0482C23.2002 34.5003 23.4471 35.2588 23.2449 35.9652L18.3525 53.0619C17.9053 54.6244 19.5917 55.9341 20.9949 55.1141L36.0385 46.323C36.608 45.9902 37.3137 45.995 37.8786 46.3355L52.6814 55.2588C54.0262 56.0695 55.6924 54.8925 55.378 53.3541L51.7916 35.8082C51.6634 35.1814 51.8772 34.5336 52.3531 34.1061L64.9873 22.759C66.1318 21.7311 65.5457 19.8342 64.0208 19.6311L48.1432 17.5169C47.5909 17.4434 47.1037 17.1186 46.8233 16.6371L38.5201 2.37492C37.8248 1.18076 36.0997 1.18076 35.4045 2.37492Z" fill="url(#paint1_linear_1551_1224)"/>
<defs>
<linearGradient id="paint0_linear_1551_1224" x1="2.7041" y1="33.4969" x2="69.0975" y2="33.4969" gradientUnits="userSpaceOnUse">
<stop stop-color="#EFAF00"/>
<stop offset="1" stop-color="#FF9500"/>
</linearGradient>
<linearGradient id="paint1_linear_1551_1224" x1="4.80664" y1="28.5398" x2="67.8955" y2="28.5398" gradientUnits="userSpaceOnUse">
<stop stop-color="#EFAF00"/>
<stop offset="1" stop-color="#FF9500"/>
</linearGradient>
</defs>
</svg>
