<svg width="40" height="40" viewBox="0 0 40 40" fill="none" xmlns="http://www.w3.org/2000/svg">
<path d="M19.4121 10.25C20.0452 10.25 20.6726 10.3721 21.2559 10.6084C21.8389 10.8446 22.3666 11.1904 22.8086 11.625C23.7099 12.5109 24.2139 13.7009 24.2139 14.9385C24.2138 16.1756 23.7104 17.3652 22.8096 18.251L20.0068 20.9902L20.0039 20.9883L19.8301 21.1572L18.1611 22.7891L18.1602 22.79C17.5711 23.3694 17.2276 24.1432 17.2002 24.958C17.1728 25.7728 17.4636 26.5663 18.0127 27.1816L18.0186 27.1885L18.1553 27.3311L18.1602 27.3359C18.4633 27.634 18.8248 27.8701 19.2227 28.0312C19.6205 28.1924 20.0476 28.2754 20.4785 28.2754C20.9094 28.2754 21.3366 28.1923 21.7344 28.0312C22.0824 27.8903 22.4021 27.6914 22.6797 27.4443L22.7959 27.3359L24.4814 25.6865L24.6094 25.5605L24.5312 25.3994C24.1512 24.613 24.0674 23.7237 24.2939 22.8848C24.5205 22.0459 25.0434 21.3063 25.7754 20.7969L25.7764 20.7979C26.5037 20.296 27.3941 20.0604 28.2871 20.1348C29.0684 20.1999 29.8048 20.4985 30.3965 20.9834L30.6406 21.2021C31.3144 21.8645 31.7081 22.7433 31.7471 23.667C31.7835 24.5328 31.5065 25.3833 30.9648 26.0732L30.8525 26.209C30.2443 26.9156 29.3784 27.3745 28.4297 27.4893C27.4809 27.6039 26.5226 27.3654 25.751 26.8242L25.5811 26.7051L25.4326 26.8506L23.875 28.376C23.2841 28.9565 22.5424 29.3761 21.7266 29.5898C20.9108 29.8035 20.0503 29.8039 19.2344 29.5908H19.2354C18.4158 29.3734 17.6708 28.9514 17.0752 28.3691C16.4798 27.787 16.0542 27.0648 15.8408 26.2754V26.2744L15.7695 25.9756C15.6263 25.274 15.6497 24.5484 15.8398 23.8545C16.0571 23.062 16.4844 22.3365 17.0811 21.75L21.0986 17.8223L21.1025 17.8271L21.3027 17.6309L21.7305 17.2119V17.2109C22.3195 16.6316 22.663 15.8578 22.6904 15.043C22.7178 14.2282 22.4271 13.4347 21.8779 12.8193L21.8721 12.8125L21.7354 12.6709L21.5605 12.8379L21.5664 12.832L21.7354 12.6699L21.7305 12.665L21.6143 12.5566C21.3365 12.3095 21.0162 12.1108 20.668 11.9697C20.2702 11.8087 19.843 11.7256 19.4121 11.7256C18.9814 11.7256 18.5549 11.8088 18.1572 11.9697C17.809 12.1107 17.4886 12.3095 17.2109 12.5566L17.0947 12.665L15.3232 14.3984L15.1807 14.5381L15.2852 14.708C15.7615 15.482 15.932 16.3952 15.7656 17.2793C15.5992 18.1634 15.1067 18.9618 14.377 19.5264C13.6526 20.0835 12.7389 20.3635 11.8115 20.3105C10.8841 20.2576 10.011 19.8754 9.36035 19.2402C8.70955 18.601 8.31977 17.7589 8.25879 16.8682C8.19791 15.9773 8.46955 15.0935 9.02734 14.3779H9.02832C9.57867 13.6677 10.3815 13.1752 11.2861 12.9971C12.191 12.819 13.1325 12.968 13.9297 13.415L14.0928 13.5068L14.2266 13.376L16.0156 11.625C16.4577 11.1903 16.9862 10.8446 17.5693 10.6084C18.1525 10.3722 18.7791 10.25 19.4121 10.25ZM27.959 21.5918C27.6612 21.5918 27.3659 21.6485 27.0908 21.7598C26.8157 21.8711 26.5655 22.0349 26.3555 22.2412C26.0732 22.5183 25.8693 22.8626 25.7656 23.2402C25.6749 23.5709 25.6643 23.9166 25.7324 24.251L25.7656 24.3936C25.9764 25.1636 26.5905 25.7617 27.373 25.9658C27.7573 26.0662 28.1626 26.0664 28.5469 25.9658C28.8832 25.8778 29.1937 25.715 29.4541 25.4912L29.5625 25.3916C29.9886 24.9728 30.2285 24.4072 30.2285 23.8164C30.2285 23.2256 29.9886 22.66 29.5625 22.2412C29.3525 22.035 29.1023 21.8711 28.8271 21.7598C28.552 21.6484 28.2568 21.5918 27.959 21.5918ZM12.6289 14.4756C12.2442 14.3751 11.8388 14.3748 11.4541 14.4756C11.0694 14.5764 10.7182 14.7748 10.4375 15.0508L10.2549 15.2305L10.2666 15.2412C10.0731 15.4797 9.9308 15.755 9.84961 16.0508C9.74598 16.4284 9.74597 16.8255 9.84961 17.2031C10.0614 17.973 10.6744 18.5721 11.4561 18.7764C12.2381 18.9803 13.0714 18.762 13.6465 18.2012H13.6475C14.1849 17.6747 14.4172 16.9205 14.2705 16.1934L14.2363 16.0479C14.1342 15.671 13.9314 15.3274 13.6494 15.0518C13.3672 14.7759 13.0152 14.5778 12.6299 14.4756H12.6289Z" fill="url(#paint0_linear_62_17719)" stroke="url(#paint1_linear_62_17719)" stroke-width="0.5"/>
<defs>
<linearGradient id="paint0_linear_62_17719" x1="8" y1="20" x2="32" y2="20" gradientUnits="userSpaceOnUse">
<stop stop-color="#EFAF00"/>
<stop offset="1" stop-color="#FF9500"/>
</linearGradient>
<linearGradient id="paint1_linear_62_17719" x1="8" y1="20" x2="32" y2="20" gradientUnits="userSpaceOnUse">
<stop stop-color="#EFAF00"/>
<stop offset="1" stop-color="#FF9500"/>
</linearGradient>
</defs>
</svg>
