<svg width="23" height="23" viewBox="0 0 23 23" fill="none" xmlns="http://www.w3.org/2000/svg">
<path opacity="0.8" d="M2.521 0.569824C1.99895 0.0478285 1.14062 0.0476963 0.618652 0.569824L0.569824 0.618652C0.0478412 1.14085 0.0478738 1.99976 0.569824 2.52197L9.40283 11.3569L0.569824 20.1919C0.0480843 20.7141 0.0480741 21.5721 0.569824 22.0942L0.618652 22.1431C1.14069 22.6653 1.99896 22.6653 2.521 22.1431L11.353 13.3081L20.1841 22.144C20.7062 22.666 21.5645 22.6662 22.0864 22.144L22.1353 22.0952C22.6569 21.573 22.6568 20.7141 22.1353 20.1919L13.3032 11.3569L22.1353 2.52197V2.521C22.6686 1.99873 22.669 1.14063 22.1353 0.618652L22.0864 0.569824C21.5645 0.0476793 20.7062 0.047895 20.1841 0.569824H20.1831L11.353 9.4165L2.521 0.569824Z" fill="#464646" stroke="#464646" stroke-width="0.357143"/>
</svg>
