<svg width="26" height="24" viewBox="0 0 26 24" fill="none" xmlns="http://www.w3.org/2000/svg">
<path d="M7.30725 23.082C7.24395 23.082 7.18038 23.0738 7.11817 23.0571C6.93098 23.007 6.77137 22.8845 6.67447 22.7167L4.83945 19.5383C4.72492 19.3399 4.71004 19.0994 4.7992 18.8884C5.16245 18.0289 5.10885 17.0823 4.65216 16.2914C4.19519 15.5001 3.40174 14.9799 2.47527 14.8642C2.24815 14.8359 2.04743 14.7028 1.93296 14.5045L0.097914 11.3265C0.00100755 11.1587 -0.0252606 10.9592 0.0248967 10.772C0.075054 10.5848 0.197521 10.4252 0.365355 10.3283L18.0845 0.0980271C18.4339 -0.10376 18.8809 0.0159749 19.0826 0.365436L20.918 3.54383C21.0326 3.74231 21.0475 3.98303 20.9582 4.19411C20.5947 5.05286 20.6484 5.99955 21.1057 6.79145C21.5632 7.58371 22.3562 8.10358 23.2813 8.21778C23.5088 8.24589 23.71 8.37912 23.8246 8.57766L25.6593 11.7557C25.861 12.1052 25.7413 12.5521 25.3918 12.7539L7.67266 22.9841C7.56061 23.0488 7.43445 23.082 7.30725 23.082ZM6.27729 19.1058L7.57476 21.3531L24.0283 11.8536L22.7313 9.60695C21.5067 9.3524 20.4666 8.60721 19.8401 7.52227C19.2138 6.43772 19.0885 5.1644 19.4801 3.97621L18.1824 1.72904L1.72896 11.2285L3.02646 13.4756C4.25168 13.7315 5.29196 14.4768 5.91777 15.5606C6.54342 16.644 6.66858 17.9172 6.27729 19.1058Z" fill="#9A9A9A"/>
<path d="M8.45034 14.8292C8.19782 14.8292 7.95221 14.6982 7.81685 14.4637C7.61503 14.1143 7.73476 13.6673 8.08426 13.4655L13.1469 10.5423C13.4964 10.3405 13.9433 10.4602 14.1451 10.8097C14.3469 11.1592 14.2272 11.6061 13.8777 11.8079L8.81507 14.7311C8.69997 14.7976 8.57432 14.8292 8.45034 14.8292ZM6.98887 12.2977C6.73631 12.2977 6.4907 12.1667 6.35534 11.9322C6.15356 11.5827 6.27332 11.1358 6.62282 10.934L11.6855 8.0111C12.0349 7.80934 12.4819 7.92904 12.6836 8.27857C12.8854 8.6281 12.7657 9.07501 12.4162 9.27676L7.35354 12.1997C7.2385 12.2661 7.11285 12.2977 6.98887 12.2977Z" fill="#9A9A9A"/>
<path d="M9.91221 17.3612C9.65965 17.3612 9.41404 17.2302 9.27868 16.9957C9.0769 16.6462 9.19666 16.1993 9.54615 15.9975L14.6088 13.0746C14.9582 12.8728 15.4052 12.9926 15.607 13.3421C15.8088 13.6916 15.689 14.1385 15.3395 14.3403L10.2769 17.2632C10.1618 17.3296 10.0362 17.3612 9.91221 17.3612Z" fill="#9A9A9A"/>
<path d="M20.0498 13.7285L20.5979 14.6777L19.3322 15.4085L18.7842 14.4593L20.0498 13.7285Z" fill="#9A9A9A"/>
<path d="M18.1387 13.3446L17.1715 11.6696L18.4371 10.9388L19.4043 12.6138L18.1387 13.3446ZM16.5268 10.553L15.5596 8.87793L16.8252 8.14714L17.7924 9.82217L16.5268 10.553ZM14.9149 7.76125L13.9478 6.08625L15.2134 5.35547L16.1805 7.03047L14.9149 7.76125Z" fill="#9A9A9A"/>
<path d="M14.021 3.28711L14.569 4.2363L13.3034 4.96704L12.7554 4.01785L14.021 3.28711Z" fill="#9A9A9A"/>
</svg>
