<svg width="53" height="53" viewBox="0 0 53 53" fill="none" xmlns="http://www.w3.org/2000/svg">
<path d="M47.9372 9.89677H46.0608C46.9441 8.54661 47.3778 6.95302 47.3 5.34286C47.2104 4.47313 46.9169 3.63658 46.4434 2.90072C45.9699 2.16487 45.3295 1.55032 44.5739 1.10667C43.6214 0.549461 42.5644 0.193038 41.4683 0.0594525C40.3722 -0.0741325 39.2602 0.0179624 38.2012 0.33004C33.4985 1.87371 29.408 4.86476 26.5179 8.87302C23.5983 4.85631 19.4674 1.87534 14.7284 0.365342C13.6857 0.0641377 12.5924 -0.022338 11.5151 0.111178C10.4378 0.244694 9.39898 0.59541 8.46193 1.14198C7.71084 1.58215 7.07324 2.19118 6.59995 2.92051C6.12666 3.64985 5.83076 4.47933 5.73584 5.34286C5.64822 6.94302 6.08298 8.5284 6.97497 9.86147H5.09857C4.42441 9.86609 3.75777 10.0031 3.13671 10.2646C2.51565 10.5261 1.95234 10.907 1.47893 11.3856C1.00551 11.8642 0.631283 12.4311 0.377598 13.0539C0.123914 13.6768 -0.00425477 14.3433 0.000410592 15.0155V21.5816C-0.0135027 22.6787 0.326513 23.7513 0.970322 24.6411C1.61413 25.5309 2.52766 26.191 3.5762 26.5238C3.39321 27.0825 3.29768 27.6659 3.29297 28.2536V47.9519C3.31147 49.2911 3.85564 50.5697 4.80874 51.5135C5.76184 52.4572 7.04794 52.9909 8.39113 53H44.6447C46 52.9907 47.2967 52.4473 48.2518 51.4883C49.2069 50.5294 49.7429 49.2327 49.7428 47.8813V28.183C49.7337 27.6188 49.6382 27.0593 49.4596 26.5238C50.4899 26.1884 51.3874 25.5365 52.0233 24.6614C52.6593 23.7863 53.0012 22.7329 53 21.6522V15.0155C53.0001 13.6701 52.469 12.3787 51.5215 11.4207C50.5741 10.4628 49.2864 9.91533 47.9372 9.89677ZM10.48 4.17791C11.0192 3.89161 11.6117 3.71881 12.2207 3.67023C12.8298 3.62165 13.4423 3.69832 14.0203 3.8955C17.4313 5.04031 20.4497 7.12019 22.7297 9.89677H11.5421C10.3601 8.78502 9.5976 7.30177 9.38243 5.69588C9.41784 5.34286 9.55945 4.77804 10.48 4.17791ZM24.6415 49.3639H8.39113C8.19749 49.364 8.0058 49.3254 7.82734 49.2505C7.64888 49.1755 7.48726 49.0658 7.352 48.9276C7.21673 48.7894 7.11056 48.6257 7.03973 48.446C6.9689 48.2663 6.93484 48.0743 6.93957 47.8813V28.183C6.93484 27.99 6.9689 27.798 7.03973 27.6183C7.11056 27.4386 7.21673 27.2748 7.352 27.1366C7.48726 26.9985 7.64888 26.8887 7.82734 26.8138C8.0058 26.7388 8.19749 26.7003 8.39113 26.7003H24.6769L24.6415 49.3639ZM24.6769 22.9937H5.09857C4.90493 22.9937 4.71324 22.9551 4.53478 22.8802C4.35632 22.8053 4.1947 22.6955 4.05944 22.5573C3.92417 22.4192 3.818 22.2554 3.74717 22.0757C3.67634 21.896 3.64229 21.704 3.64701 21.511V15.0155C3.64229 14.8225 3.67634 14.6305 3.74717 14.4508C3.818 14.2711 3.92417 14.1073 4.05944 13.9692C4.1947 13.831 4.35632 13.7212 4.53478 13.6463C4.71324 13.5713 4.90493 13.5328 5.09857 13.5328H24.6769V22.9937ZM39.0863 3.8249C39.6643 3.62772 40.2769 3.55104 40.8859 3.59962C41.4949 3.6482 42.0874 3.821 42.6267 4.10731C43.5472 4.70744 43.6888 5.23696 43.7242 5.62528C43.5294 7.23745 42.7635 8.72723 41.5645 9.82617H30.3415C32.6379 7.06727 35.6692 5.01142 39.0863 3.8955V3.8249ZM46.167 47.8107C46.1718 48.0037 46.1377 48.1957 46.0669 48.3754C45.9961 48.5551 45.8899 48.7188 45.7546 48.857C45.6194 48.9952 45.4577 49.1049 45.2793 49.1799C45.1008 49.2548 44.9091 49.2934 44.7155 49.2933H28.3235V26.7003H44.6447C44.8383 26.7003 45.03 26.7388 45.2085 26.8138C45.3869 26.8887 45.5485 26.9985 45.6838 27.1366C45.8191 27.2748 45.9252 27.4386 45.9961 27.6183C46.0669 27.798 46.101 27.99 46.0962 28.183L46.167 47.8107ZM49.4596 21.511C49.4643 21.704 49.4303 21.896 49.3594 22.0757C49.2886 22.2554 49.1824 22.4192 49.0472 22.5573C48.9119 22.6955 48.7503 22.8053 48.5718 22.8802C48.3934 22.9551 48.2017 22.9937 48.008 22.9937H28.3235V13.5328H47.9372C48.1309 13.5328 48.3226 13.5713 48.501 13.6463C48.6795 13.7212 48.8411 13.831 48.9764 13.9692C49.1116 14.1073 49.2178 14.2711 49.2886 14.4508C49.3595 14.6305 49.3935 14.8225 49.3888 15.0155L49.4596 21.511Z" fill="url(#paint0_linear_1043_27748)"/>
<defs>
<linearGradient id="paint0_linear_1043_27748" x1="0" y1="26.5" x2="53" y2="26.5" gradientUnits="userSpaceOnUse">
<stop stop-color="#EFAF00"/>
<stop offset="1" stop-color="#FF9500"/>
</linearGradient>
</defs>
</svg>
