<svg width="24" height="26" viewBox="0 0 24 26" fill="none" xmlns="http://www.w3.org/2000/svg">
<path d="M11.7153 14.5514C9.83278 14.5514 8.06291 13.7946 6.73177 12.4204C5.4006 11.0462 4.6675 9.21913 4.6675 7.27571C4.6675 5.33229 5.4006 3.50521 6.73177 2.13099C8.06291 0.756805 9.83278 0 11.7153 0C13.5979 0 15.3677 0.756805 16.6989 2.13099C18.03 3.50521 18.7631 5.33229 18.7631 7.27571C18.7631 9.21913 18.03 11.0462 16.6989 12.4204C15.3677 13.7946 13.5978 14.5514 11.7153 14.5514ZM11.7153 1.64512C8.70783 1.64512 6.26109 4.17099 6.26109 7.27571C6.26109 10.3804 8.70783 12.9063 11.7153 12.9063C14.7228 12.9063 17.1695 10.3804 17.1695 7.27571C17.1695 4.17099 14.7228 1.64512 11.7153 1.64512ZM0.796791 26C0.356738 26 0 25.6317 0 25.1774C0 23.5538 0.308209 21.9782 0.916086 20.4946C1.50305 19.062 2.34316 17.7755 3.41311 16.671C4.48305 15.5665 5.7292 14.6992 7.11694 14.0932C8.5541 13.4657 10.0803 13.1475 11.6531 13.1475C13.5451 13.1475 15.4241 13.6266 17.0868 14.5328C17.4759 14.745 17.6248 15.2426 17.4194 15.6443C17.2139 16.046 16.7318 16.1997 16.3427 15.9876C14.9085 15.2058 13.2868 14.7926 11.6531 14.7926C6.10623 14.7926 1.59358 19.4512 1.59358 25.1774C1.59358 25.6317 1.23684 26 0.796791 26ZM23.2032 21.6393H16.1808C15.7407 21.6393 15.384 21.271 15.384 20.8167C15.384 20.3624 15.7407 19.9942 16.1808 19.9942H23.2032C23.6433 19.9942 24 20.3624 24 20.8167C24 21.271 23.6433 21.6393 23.2032 21.6393ZM19.692 25.2641C19.252 25.2641 18.8952 24.8958 18.8952 24.4415V17.192C18.8952 16.7377 19.252 16.3694 19.692 16.3694C20.1321 16.3694 20.4888 16.7377 20.4888 17.192V24.4415C20.4888 24.8958 20.1321 25.2641 19.692 25.2641Z" fill="url(#paint0_linear_1043_27799)"/>
<defs>
<linearGradient id="paint0_linear_1043_27799" x1="0" y1="13" x2="24" y2="13" gradientUnits="userSpaceOnUse">
<stop stop-color="#EFAF00"/>
<stop offset="1" stop-color="#FF9500"/>
</linearGradient>
</defs>
</svg>
