<svg width="21" height="21" viewBox="0 0 21 21" fill="none" xmlns="http://www.w3.org/2000/svg">
<path d="M10.3254 20.6507C8.93261 20.6507 7.57946 20.3765 6.30555 19.8401C5.07431 19.3189 3.97106 18.5753 3.02325 17.6275C2.07544 16.6797 1.33182 15.5734 0.81067 14.3452C0.271239 13.0713 0 11.7181 0 10.3254C0 8.93261 0.274287 7.57946 0.81067 6.30555C1.33182 5.07431 2.07544 3.97106 3.02325 3.02325C3.97106 2.07544 5.07735 1.33181 6.30555 0.81067C7.57946 0.271239 8.93261 0 10.3254 0C11.7181 0 13.0713 0.274287 14.3452 0.81067C15.5764 1.33181 16.6797 2.07544 17.6275 3.02325C18.5753 3.97106 19.3189 5.07735 19.8401 6.30555C20.3795 7.57946 20.6507 8.93261 20.6507 10.3254C20.6507 11.7181 20.3765 13.0713 19.8401 14.3452C19.3189 15.5764 18.5753 16.6797 17.6275 17.6275C16.6797 18.5753 15.5734 19.3189 14.3452 19.8401C13.0713 20.3765 11.7181 20.6507 10.3254 20.6507ZM10.3254 1.51772C5.4705 1.51772 1.52077 5.46745 1.52077 10.3223C1.52077 15.1772 5.4705 19.1269 10.3254 19.1269C15.1803 19.1269 19.13 15.1772 19.13 10.3223C19.13 5.46745 15.1803 1.51772 10.3254 1.51772Z" fill="#9A9A9A"/>
<path d="M10.3407 9.7305L6.39703 5.78687L7.47589 4.70801L10.3407 7.57278L13.1902 4.72325L14.2691 5.80211L10.3407 9.7305ZM6.25684 12.4825H14.391V14.0063H6.25684V12.4825Z" fill="#9A9A9A"/>
<path d="M6.25684 9.2793H14.391V10.8031H6.25684V9.2793Z" fill="#9A9A9A"/>
<path d="M9.56982 7.65234H11.0936V16.7709H9.56982V7.65234Z" fill="#9A9A9A"/>
</svg>
