<svg width="21" height="21" viewBox="0 0 21 21" fill="none" xmlns="http://www.w3.org/2000/svg">
<path d="M19.7636 7.40922V13.5851H12.3514C10.6489 13.5851 9.262 12.1982 9.262 10.4957C9.262 8.79322 10.6489 7.40922 12.3514 7.40922H19.7636ZM20.9999 6.17578H12.3514C9.96269 6.17578 8.02856 8.1128 8.02856 10.4986C8.02856 12.8873 9.96558 14.8214 12.3514 14.8214H20.9999V6.17578Z" fill="url(#paint0_linear_1655_2053)"/>
<path d="M19.7639 18.5276C19.7639 19.208 19.2109 19.7639 18.5276 19.7639H2.46977C1.78935 19.7639 1.23344 19.2109 1.23344 18.5276V2.46977C1.23344 1.78935 1.78646 1.23344 2.46977 1.23344H18.5305C19.2109 1.23344 19.7668 1.78646 19.7668 2.46977V6.17587H21.0032V2.46977C21.0032 1.10604 19.8971 2.89765e-08 18.5334 0H2.46977C1.10604 0 0 1.10604 0 2.46977V18.5305C0 19.8942 1.10604 21.0003 2.46977 21.0003H18.5305C19.8942 21.0003 21.0003 19.8942 21.0003 18.5305V14.8244H19.7639V18.5276Z" fill="url(#paint1_linear_1655_2053)"/>
<path d="M11.7346 10.4986C11.7346 10.6621 11.7996 10.819 11.9153 10.9346C12.0309 11.0503 12.1878 11.1153 12.3513 11.1153C12.5149 11.1153 12.6718 11.0503 12.7874 10.9346C12.9031 10.819 12.9681 10.6621 12.9681 10.4986C12.9681 10.335 12.9031 10.1781 12.7874 10.0625C12.6718 9.94681 12.5149 9.88184 12.3513 9.88184C12.1878 9.88184 12.0309 9.94681 11.9153 10.0625C11.7996 10.1781 11.7346 10.335 11.7346 10.4986Z" fill="url(#paint2_linear_1655_2053)"/>
<defs>
<linearGradient id="paint0_linear_1655_2053" x1="8.02856" y1="10.4986" x2="20.9999" y2="10.4986" gradientUnits="userSpaceOnUse">
<stop stop-color="#EFAF00"/>
<stop offset="1" stop-color="#FF9500"/>
</linearGradient>
<linearGradient id="paint1_linear_1655_2053" x1="0" y1="10.5001" x2="21.0032" y2="10.5001" gradientUnits="userSpaceOnUse">
<stop stop-color="#EFAF00"/>
<stop offset="1" stop-color="#FF9500"/>
</linearGradient>
<linearGradient id="paint2_linear_1655_2053" x1="11.7346" y1="10.4986" x2="12.9681" y2="10.4986" gradientUnits="userSpaceOnUse">
<stop stop-color="#EFAF00"/>
<stop offset="1" stop-color="#FF9500"/>
</linearGradient>
</defs>
</svg>
