<svg width="23" height="23" viewBox="0 0 23 23" fill="none" xmlns="http://www.w3.org/2000/svg">
<path d="M23 11.4665V11.4575C23 11.4486 23 11.4396 22.9978 11.4328V11.4261C22.9978 11.4171 22.9955 11.4081 22.9933 11.3991V11.3969C22.973 11.2599 22.9102 11.1296 22.8046 11.024L19.6915 7.91096C19.4287 7.64817 18.9997 7.64817 18.7392 7.91096C18.4764 8.17375 18.4764 8.60276 18.7392 8.86331L20.7022 10.8264H10.7363C10.3657 10.8264 10.0625 11.1296 10.0625 11.5002C10.0625 11.8708 10.3657 12.174 10.7363 12.174H20.7L18.7369 14.1371C18.4741 14.3999 18.4741 14.8289 18.7369 15.0895C18.9997 15.3523 19.4287 15.3523 19.6893 15.0895L22.8023 11.9764C22.9079 11.8708 22.9708 11.7406 22.991 11.6035V11.6013C22.9933 11.5923 22.9933 11.5833 22.9955 11.5743V11.5676C22.9955 11.5586 22.9978 11.5496 22.9978 11.5429V11.5339V11.5002C23 11.489 23 11.4778 23 11.4665Z" fill="url(#paint0_linear_1655_2060)"/>
<path d="M16.5762 16.5312C16.2033 16.5312 15.9023 16.8322 15.9023 17.2051V20.8887C15.9023 21.3109 15.5609 21.6523 15.1387 21.6523H2.11133C1.68906 21.6523 1.34766 21.3109 1.34766 20.8887V2.11133C1.34766 1.68906 1.68906 1.34766 2.11133 1.34766H15.1387C15.5609 1.34766 15.9023 1.68906 15.9023 2.11133V5.79492C15.9023 6.16777 16.2033 6.46875 16.5762 6.46875C16.949 6.46875 17.25 6.16777 17.25 5.79492V2.11133C17.25 0.945605 16.3044 0 15.1387 0H2.11133C0.945605 0 0 0.945605 0 2.11133V20.8887C0 22.0544 0.945605 23 2.11133 23H15.1387C16.3044 23 17.25 22.0544 17.25 20.8887V17.2051C17.25 16.8322 16.949 16.5312 16.5762 16.5312Z" fill="url(#paint1_linear_1655_2060)"/>
<defs>
<linearGradient id="paint0_linear_1655_2060" x1="10.0625" y1="11.5002" x2="23" y2="11.5002" gradientUnits="userSpaceOnUse">
<stop stop-color="#EFAF00"/>
<stop offset="1" stop-color="#FF9500"/>
</linearGradient>
<linearGradient id="paint1_linear_1655_2060" x1="0" y1="11.5" x2="17.25" y2="11.5" gradientUnits="userSpaceOnUse">
<stop stop-color="#EFAF00"/>
<stop offset="1" stop-color="#FF9500"/>
</linearGradient>
</defs>
</svg>
