<svg width="23" height="23" viewBox="0 0 23 23" fill="none" xmlns="http://www.w3.org/2000/svg">
<path d="M11.4998 23C5.14824 23 0 17.8513 0 11.5C0 5.1487 5.14824 0 11.4998 0C17.8511 0 23 5.1487 23 11.5C23 17.8513 17.8511 23 11.4998 23ZM17.2538 19.7483L13.9379 17.9912C13.5142 17.7592 13.2337 17.3296 13.1939 16.8495C13.153 16.368 13.3577 15.9 13.7377 15.601C14.9782 14.6259 15.3268 12.478 15.3268 11.3522V8.31991C15.3268 7.26521 13.4878 5.51325 11.4125 5.51325C9.37467 5.51325 7.42828 7.28909 7.42828 8.31991V11.3522C7.42828 12.4939 7.94466 14.6328 9.14958 15.5977C9.52557 15.8991 9.72536 16.367 9.68208 16.8467C9.64021 17.3258 9.3583 17.7507 8.9355 17.9805L5.71538 19.7254C7.3522 20.8789 9.34466 21.5625 11.4998 21.5625C13.6415 21.5625 15.6225 20.8887 17.2538 19.7483ZM11.4998 1.43752C5.94254 1.43752 1.43749 5.94282 1.43749 11.5C1.43749 14.3455 2.62326 16.9098 4.52164 18.7399L8.25158 16.7184C6.55204 15.3577 5.9919 12.6773 5.9919 11.3522V8.31991C5.9919 6.31433 8.73166 4.07715 11.4125 4.07715C14.0944 4.07715 16.7647 6.31341 16.7647 8.31991V11.3522C16.7647 12.8084 16.3082 15.4073 14.6267 16.7292L18.4516 18.7638C20.365 16.9318 21.5622 14.3581 21.5622 11.5C21.5622 5.94279 17.0572 1.43752 11.4998 1.43752Z" fill="url(#paint0_linear_1655_2050)"/>
<defs>
<linearGradient id="paint0_linear_1655_2050" x1="0" y1="11.5" x2="23" y2="11.5" gradientUnits="userSpaceOnUse">
<stop stop-color="#EFAF00"/>
<stop offset="1" stop-color="#FF9500"/>
</linearGradient>
</defs>
</svg>
