<svg width="19" height="19" viewBox="0 0 19 19" fill="none" xmlns="http://www.w3.org/2000/svg">
<path d="M8.50766 3.09375H3.09372C2.68347 3.09375 2.29002 3.25672 1.99993 3.54681C1.70985 3.8369 1.54688 4.23034 1.54688 4.64059V15.4685C1.54688 15.8787 1.70985 16.2722 1.99993 16.5623C2.29002 16.8524 2.68347 17.0153 3.09372 17.0153H13.9216C14.3319 17.0153 14.7253 16.8524 15.0154 16.5623C15.3055 16.2722 15.4685 15.8787 15.4685 15.4685V10.0545" stroke="#999999" stroke-width="1.23747" stroke-linecap="round" stroke-linejoin="round"/>
<path d="M14.3083 1.93367C14.616 1.62598 15.0333 1.45312 15.4684 1.45312C15.9036 1.45313 16.3209 1.62598 16.6286 1.93367C16.9362 2.24135 17.1091 2.65866 17.1091 3.0938C17.1091 3.52893 16.9362 3.94624 16.6286 4.25393L9.28106 11.6014L6.18738 12.3749L6.9608 9.28117L14.3083 1.93367Z" stroke="#999999" stroke-width="1.23747" stroke-linecap="round" stroke-linejoin="round"/>
</svg>
