<svg width="32" height="32" viewBox="0 0 32 32" fill="none" xmlns="http://www.w3.org/2000/svg">
<path d="M21.3815 3.66357C21.8782 3.16757 22.6988 3.18357 23.2228 3.70757L26.0515 6.53623C26.5722 7.0569 26.5935 7.87957 26.0962 8.37757L12.1695 22.3042C11.9215 22.5516 11.4475 22.8276 11.1002 22.9222L6.6095 24.1489C5.92483 24.3362 5.51216 23.9269 5.6855 23.2442L6.8495 18.6576C6.93616 18.3156 7.21083 17.8342 7.4555 17.5896L21.3822 3.6629L21.3815 3.66357ZM8.39816 18.5329C8.3075 18.6236 8.14483 18.9102 8.11283 19.0336L7.20283 22.6202L10.7015 21.6649C10.8402 21.6269 11.1275 21.4602 11.2268 21.3609L25.1535 7.43423L22.3248 4.60623L8.39816 18.5329ZM21.3375 5.5929L24.1662 8.42157L23.2228 9.3649L20.3948 6.53623L21.3375 5.59357V5.5929ZM10.0242 16.9069L12.8522 19.7356L11.9095 20.6782L9.08083 17.8502L10.0235 16.9069H10.0242ZM5.3335 27.3329C5.3335 26.9649 5.62816 26.6662 6.00416 26.6662H26.6628C26.8396 26.6662 27.0092 26.7365 27.1342 26.8615C27.2593 26.9865 27.3295 27.1561 27.3295 27.3329C27.3295 27.5097 27.2593 27.6793 27.1342 27.8043C27.0092 27.9293 26.8396 27.9996 26.6628 27.9996H6.00416C5.91628 28.0001 5.82916 27.9832 5.74781 27.95C5.66647 27.9167 5.5925 27.8677 5.53017 27.8057C5.46784 27.7438 5.41838 27.6701 5.38462 27.5889C5.35087 27.5078 5.33349 27.4208 5.3335 27.3329Z" fill="url(#paint0_linear_2685_2854)"/>
<defs>
<linearGradient id="paint0_linear_2685_2854" x1="5.3335" y1="15.6512" x2="27.3295" y2="15.6512" gradientUnits="userSpaceOnUse">
<stop stop-color="#EFAF00"/>
<stop offset="1" stop-color="#FF9500"/>
</linearGradient>
</defs>
</svg>
