<svg width="67" height="68" viewBox="0 0 67 68" fill="none" xmlns="http://www.w3.org/2000/svg">
<path d="M65.1299 10.9172C65.0639 4.80268 63.8355 1.0977 58.2203 1.09767H18.316C14.3885 1.09767 12.189 4.08266 12.189 8.32445V38.0169V64.9613C12.189 65.2644 12.4347 65.51 12.7377 65.51H47.0659C49.5796 65.51 53.5072 64.7245 53.5072 60.3256V11.4665H64.5841C64.8871 11.4665 65.1332 11.2203 65.1299 10.9172Z" fill="url(#paint0_linear_1551_1142)"/>
<path d="M58.2203 1.09767C63.8355 1.0977 65.0639 4.80268 65.1299 10.9172C65.1332 11.2203 64.8871 11.4665 64.5841 11.4665H53.5072M58.2203 1.09767C52.4389 1.09764 29.2085 1.09767 18.316 1.09767C14.3885 1.09767 12.189 4.08266 12.189 8.32445V38.0169V64.9613C12.189 65.2643 12.4347 65.51 12.7377 65.51H47.0659C49.5796 65.51 53.5072 64.7245 53.5072 60.3256C53.5072 55.9267 53.5072 25.92 53.5072 11.4665M58.2203 1.09767C53.9471 1.09765 53.5072 7.53893 53.5072 11.4665" stroke="white" stroke-width="2.19487"/>
<path d="M48.1152 65.632C42.2288 65.632 43.0107 58.7968 44.6609 55.6116C44.8744 55.1995 44.5865 54.6348 44.1224 54.6348H3.1179C2.96 54.6348 2.8091 54.7015 2.71003 54.8244C0.894733 57.0773 -0.720078 62.3362 5.72852 65.8778C5.80915 65.9221 5.90265 65.9458 5.99463 65.9452L48.1152 65.632Z" fill="url(#paint1_linear_1551_1142)" stroke="white" stroke-width="2.19487"/>
<path d="M19.7539 15.3643H46.0924M19.7539 23.0463H46.0924M19.7539 30.7284H46.0924M19.7539 38.4104H32.6238" stroke="white" stroke-width="2.19487" stroke-linecap="round"/>
<defs>
<linearGradient id="paint0_linear_1551_1142" x1="65.1328" y1="33.3038" x2="12.189" y2="33.3038" gradientUnits="userSpaceOnUse">
<stop stop-color="#EFAF00"/>
<stop offset="1" stop-color="#FF9500"/>
</linearGradient>
<linearGradient id="paint1_linear_1551_1142" x1="48.1152" y1="60.2905" x2="1.09732" y2="60.2905" gradientUnits="userSpaceOnUse">
<stop stop-color="#EFAF00"/>
<stop offset="1" stop-color="#FF9500"/>
</linearGradient>
</defs>
</svg>
