<svg width="59" height="60" viewBox="0 0 59 60" fill="none" xmlns="http://www.w3.org/2000/svg">
<path d="M52.0371 0.547852C53.3636 0.245562 54.6838 1.07588 54.9863 2.40234L56.2197 7.80664C56.5199 9.12341 55.7032 10.437 54.3896 10.751L4.87305 22.5879C3.53997 22.9066 2.20239 22.0765 1.89746 20.7402L0.547852 14.8203C0.245265 13.4938 1.07491 12.1729 2.40137 11.8701L52.0371 0.547852ZM13.2188 12.2744L8.00293 13.5186C7.60218 13.6142 7.4888 14.1299 7.8125 14.3848L11.9541 17.6455C12.0723 17.7386 12.2267 17.7731 12.373 17.7383L17.7568 16.4531C18.1629 16.356 18.2719 15.8292 17.9375 15.5791L13.6279 12.3584C13.5109 12.2709 13.3609 12.2406 13.2188 12.2744ZM24.0049 9.7002L18.79 10.9443C18.3893 11.04 18.2759 11.5567 18.5996 11.8115L22.7412 15.0723C22.8595 15.1652 23.0138 15.1989 23.1602 15.1641L28.543 13.8799C28.9493 13.7829 29.0583 13.256 28.7236 13.0059L24.4141 9.78516C24.2969 9.69766 24.1471 9.66626 24.0049 9.7002ZM34.7939 7.12598L29.5781 8.37012C29.1774 8.46575 29.064 8.98245 29.3877 9.2373L33.5293 12.498C33.6475 12.591 33.802 12.6246 33.9482 12.5898L39.332 11.3047C39.7381 11.2075 39.8472 10.6807 39.5127 10.4307L35.2031 7.20996C35.0861 7.12254 34.9361 7.09216 34.7939 7.12598ZM45.7871 4.50195L40.5713 5.74609C40.1705 5.84173 40.0571 6.35843 40.3809 6.61328L44.5225 9.87402C44.6408 9.96715 44.7959 10.0008 44.9424 9.96582L50.3252 8.68164C50.7314 8.58466 50.84 8.05781 50.5059 7.80762L46.1963 4.58691C46.0792 4.49942 45.9293 4.46811 45.7871 4.50195Z" fill="url(#paint0_linear_1551_2039)"/>
<path d="M56.2891 23.1689C57.6497 23.1689 58.7529 24.2722 58.7529 25.6328V56.6768C58.7528 58.0374 57.6497 59.1406 56.2891 59.1406H5.04297C3.68232 59.1406 2.5792 58.0374 2.5791 56.6768V25.6328C2.57917 24.2722 3.6823 23.1689 5.04297 23.1689H56.2891ZM27.7275 39.2842C26.7423 38.6974 25.4934 39.407 25.4932 40.5537V50.9131C25.4932 52.051 26.7245 52.7623 27.71 52.1934L36.5391 47.0967C37.5166 46.5323 37.5271 45.1239 36.5576 44.5459L27.7275 39.2842ZM10.2021 25.6328C10.0559 25.6328 9.91686 25.6982 9.82324 25.8105L5.7168 30.7373C5.44934 31.0582 5.67793 31.5459 6.0957 31.5459H12.6895C12.8398 31.5458 12.9818 31.4772 13.0752 31.3594L16.9766 26.4316C17.2323 26.1086 17.0019 25.6328 16.5898 25.6328H10.2021ZM23.2607 25.6328C23.1145 25.6328 22.9755 25.6982 22.8818 25.8105L18.7754 30.7373C18.5079 31.0582 18.7365 31.5459 19.1543 31.5459H25.748C25.8984 31.5458 26.0404 31.4772 26.1338 31.3594L30.0352 26.4316C30.2909 26.1086 30.0604 25.6328 29.6484 25.6328H23.2607ZM36.0723 25.6328C35.9261 25.6329 35.7879 25.6983 35.6943 25.8105L31.5879 30.7373C31.3205 31.0582 31.5482 31.5457 31.9658 31.5459H38.5596C38.7101 31.5459 38.8528 31.4774 38.9463 31.3594L42.8467 26.4316C43.1024 26.1087 42.8728 25.6329 42.4609 25.6328H36.0723ZM48.8828 25.6328C48.7366 25.6329 48.5985 25.6983 48.5049 25.8105L44.3984 30.7373C44.131 31.0582 44.3588 31.5457 44.7764 31.5459H51.3701C51.5206 31.5459 51.6634 31.4774 51.7568 31.3594L55.6572 26.4316C55.9129 26.1086 55.6834 25.6329 55.2715 25.6328H48.8828Z" fill="url(#paint1_linear_1551_2039)"/>
<defs>
<linearGradient id="paint0_linear_1551_2039" x1="0.485352" y1="11.5716" x2="56.2817" y2="11.5716" gradientUnits="userSpaceOnUse">
<stop stop-color="#EFAF00"/>
<stop offset="1" stop-color="#FF9500"/>
</linearGradient>
<linearGradient id="paint1_linear_1551_2039" x1="2.5791" y1="41.1548" x2="58.7529" y2="41.1548" gradientUnits="userSpaceOnUse">
<stop stop-color="#EFAF00"/>
<stop offset="1" stop-color="#FF9500"/>
</linearGradient>
</defs>
</svg>
