<svg width="61" height="67" viewBox="0 0 61 67" fill="none" xmlns="http://www.w3.org/2000/svg">
<path d="M27.9922 4.18555C40.5631 4.18573 50.7537 14.3764 50.7539 26.9473C50.7539 39.5184 40.5632 49.7098 27.9922 49.71C15.421 49.71 5.22949 39.5185 5.22949 26.9473C5.22971 14.3762 15.4211 4.18555 27.9922 4.18555ZM10.4609 21.7148C10.2759 20.9759 9.66949 21.6796 9.29004 22.2744C9.19596 22.4219 9.13691 22.5834 9.10742 22.7559C8.13429 28.4526 9.11975 40.5764 20.665 45.5244C35.3159 51.8032 19.0946 37.6751 18.5713 35.582C18.048 33.489 16.4786 27.9947 13.8623 26.6865C11.246 25.3784 10.7226 22.7614 10.4609 21.7148ZM46.0439 22.7617C42.5548 12.7926 35.7414 6.8591 33.2939 9.25879C33.0466 9.5014 32.9901 9.86647 32.9844 10.2129C32.9553 11.9877 31.9571 14.869 27.9912 15.4355C22.4969 16.2205 26.6827 20.4072 24.0664 20.4072C21.4499 20.4074 15.4333 22.2388 17.2646 23.5469C19.0968 24.855 25.8982 26.4245 27.9912 25.9014C30.0843 25.3781 35.0554 29.0407 32.4395 33.75C29.8232 38.4593 38.1942 36.3668 38.9795 37.6748C39.7644 38.9829 36.6254 41.861 39.7646 41.3379C42.9042 40.8146 49.7067 33.227 46.0439 22.7617Z" fill="url(#paint0_linear_1551_1158)"/>
<path d="M46.3378 5.23223C58.3856 15.3792 59.9266 33.3717 49.7795 45.4196C44.6133 51.5536 37.4133 54.964 29.9997 55.4949M9.59218 48.8614C15.506 53.8422 22.8522 56.0068 29.9997 55.4949M29.9997 55.4949L29.9997 63.8383M29.9997 63.8383L15.6098 63.8383M29.9997 63.8383L43.6047 63.8383" stroke="url(#paint1_linear_1551_1158)" stroke-width="3.13961" stroke-linecap="round"/>
<defs>
<linearGradient id="paint0_linear_1551_1158" x1="5.22949" y1="26.9477" x2="50.7539" y2="26.9477" gradientUnits="userSpaceOnUse">
<stop stop-color="#EFAF00"/>
<stop offset="1" stop-color="#FF9500"/>
</linearGradient>
<linearGradient id="paint1_linear_1551_1158" x1="18.3487" y1="66.1451" x2="59.9765" y2="16.7191" gradientUnits="userSpaceOnUse">
<stop stop-color="#EFAF00"/>
<stop offset="1" stop-color="#FF9500"/>
</linearGradient>
</defs>
</svg>
