<svg width="40" height="40" viewBox="0 0 40 40" fill="none" xmlns="http://www.w3.org/2000/svg">
<path d="M15.8407 11.4467C16.3066 10.9886 16.8624 10.6247 17.4756 10.3763C18.0889 10.1279 18.7474 10 19.4125 10C20.0776 10 20.736 10.1279 21.3493 10.3763C21.9626 10.6247 22.5184 10.9886 22.9842 11.4467C23.9323 12.3786 24.4635 13.6324 24.4635 14.9383C24.4635 16.2442 23.9323 17.498 22.9842 18.43L20.0081 21.3395L20.0048 21.3363L18.3357 22.9679C17.7913 23.5033 17.4752 24.2164 17.4499 24.966C17.4246 25.7156 17.6921 26.4471 18.1993 27.0154L18.3357 27.1575C18.6152 27.4322 18.9486 27.6505 19.3165 27.7994C19.6844 27.9484 20.0793 28.0252 20.4783 28.0252C20.8773 28.0252 21.2722 27.9484 21.6401 27.7994C22.008 27.6505 22.3414 27.4322 22.6209 27.1575L24.3064 25.508C23.9003 24.6676 23.8106 23.7167 24.053 22.8194C24.2953 21.9221 24.8545 21.1344 25.6341 20.5921C26.4096 20.0569 27.3576 19.8063 28.3076 19.8854C29.2575 19.9645 30.147 20.3682 30.816 21.0237C31.5341 21.7296 31.9548 22.6677 31.9966 23.656C32.0383 24.6443 31.6981 25.6123 31.0419 26.3722C30.392 27.1272 29.4687 27.6153 28.4595 27.7373C27.4502 27.8593 26.4307 27.6061 25.6079 27.0291L24.05 28.5544C23.4276 29.166 22.6476 29.6067 21.7902 29.8313C20.9328 30.0559 20.0289 30.0562 19.1714 29.8323C18.3108 29.604 17.5276 29.1612 16.9006 28.5483C16.2736 27.9353 15.8249 27.174 15.5996 26.3406C15.3697 25.5046 15.3693 24.6251 15.5985 23.7889C15.8276 22.9526 16.2785 22.1883 16.9066 21.5711L21.1241 17.4478L21.1274 17.452L21.5551 17.0331C22.0995 16.4977 22.4156 15.7846 22.4409 15.035C22.4661 14.2854 22.1986 13.554 21.6914 12.9856L21.5551 12.8435C21.2756 12.5688 20.9422 12.3506 20.5743 12.2016C20.2064 12.0526 19.8114 11.9759 19.4125 11.9759C19.0135 11.9759 18.6185 12.0526 18.2506 12.2016C17.8828 12.3506 17.5493 12.5688 17.2699 12.8435L15.4982 14.5772C16.0069 15.4038 16.189 16.3799 16.011 17.3257C15.833 18.2716 15.3068 19.1235 14.5294 19.7247C13.7567 20.3191 12.7835 20.6167 11.7971 20.5604C10.8106 20.504 9.88063 20.0976 9.18601 19.4194C8.49191 18.7381 8.07426 17.839 8.009 16.8857C7.94373 15.9324 8.23518 14.9881 8.83036 14.2246C9.41866 13.4654 10.2756 12.9412 11.2383 12.7518C12.2009 12.5623 13.2022 12.7209 14.0516 13.1972L15.8407 11.4467ZM26.5308 22.4195C26.2794 22.6662 26.099 22.9718 26.0072 23.3063C25.9153 23.6407 25.9153 23.9925 26.0072 24.3269C26.1937 25.009 26.7381 25.5417 27.4363 25.7238C27.7792 25.8133 28.1405 25.8132 28.4833 25.7235C28.8261 25.6338 29.1379 25.4577 29.3869 25.2133C29.7663 24.8405 29.9788 24.3389 29.9788 23.8164C29.9788 23.2939 29.7663 22.7923 29.3869 22.4195C29.2006 22.2365 28.9783 22.0911 28.7331 21.9919C28.488 21.8927 28.2247 21.8416 27.9589 21.8416C27.693 21.8416 27.4298 21.8927 27.1846 21.9919C26.9394 22.0911 26.7172 22.2365 26.5308 22.4195ZM10.614 15.2299C10.3627 15.4766 10.1822 15.7822 10.0904 16.1167C9.99855 16.4511 9.99856 16.8029 10.0904 17.1373C10.278 17.8194 10.8224 18.3521 11.5195 18.5342C12.2177 18.7163 12.9607 18.5215 13.4723 18.0226C13.9818 17.5236 14.1814 16.7962 13.9949 16.1141C13.9046 15.7808 13.7251 15.4762 13.4742 15.231C13.2234 14.9858 12.91 14.8086 12.5657 14.7172C12.2225 14.6276 11.8607 14.6277 11.5175 14.7176C11.1743 14.8075 10.8621 14.984 10.613 15.2288L10.614 15.2299Z" fill="#464646"/>
</svg>
