<svg width="40" height="40" viewBox="0 0 40 40" fill="none" xmlns="http://www.w3.org/2000/svg">
<path d="M29.9997 30.4878C29.3203 28.3694 27.9858 26.5215 26.1888 25.2106C24.3915 23.8996 22.2244 23.1931 19.9998 23.1931C17.7753 23.1931 15.6082 23.8996 13.811 25.2106C12.0138 26.5215 10.6793 28.3694 10 30.4878H29.9997Z" stroke="#464646" stroke-width="1.7" stroke-linecap="round" stroke-linejoin="round"/>
<path d="M19.9997 23.2079C23.7817 23.2079 26.8477 20.142 26.8477 16.36C26.8477 12.578 23.7817 9.51215 19.9997 9.51215C16.2178 9.51215 13.1519 12.578 13.1519 16.36C13.1519 20.142 16.2178 23.2079 19.9997 23.2079Z" stroke="#464646" stroke-width="1.7" stroke-linecap="round" stroke-linejoin="round"/>
<path d="M22.2358 19.009C22.2358 19.009 21.6676 20.127 19.9997 20.127C18.3319 20.127 17.7637 19.009 17.7637 19.009" stroke="#464646" stroke-width="1.7" stroke-linecap="round" stroke-linejoin="round"/>
<path d="M26.7231 15.0562C26.7078 15.0563 26.6926 15.0564 26.6774 15.0564C24.6868 15.0564 22.8998 14.1855 21.6763 12.8041C20.4528 14.1856 18.6657 15.0564 16.6752 15.0564C15.5193 15.0564 14.432 14.7627 13.4839 14.246C14.3747 11.4986 16.955 9.51215 19.9992 9.51215C23.3353 9.51215 26.1143 11.8978 26.7231 15.0562Z" stroke="#464646" stroke-width="1.7" stroke-linecap="round" stroke-linejoin="round"/>
</svg>
