<svg width="40" height="40" viewBox="0 0 40 40" fill="none" xmlns="http://www.w3.org/2000/svg">
<g clip-path="url(#clip0_864_9589)">
<mask id="mask0_864_9589" style="mask-type:luminance" maskUnits="userSpaceOnUse" x="0" y="0" width="40" height="40">
<path d="M40 0H0V40H40V0Z" fill="white"/>
</mask>
<g mask="url(#mask0_864_9589)">
<path d="M15.9719 26.6928C15.9716 26.1081 15.8041 25.5365 15.4906 25.0505C15.1771 24.5644 14.7317 24.1856 14.2106 23.962C13.6896 23.7384 13.1163 23.68 12.5632 23.7941C12.0101 23.9083 11.5021 24.1899 11.1033 24.6034C10.7046 25.0169 10.433 25.5437 10.3229 26.1172C10.2128 26.6907 10.2691 27.2851 10.4848 27.8254C10.7004 28.3657 11.0657 28.8276 11.5345 29.1527C12.0032 29.4778 12.5544 29.6514 13.1183 29.6518V32.0002L12.8563 31.9934C11.8565 31.9403 10.8936 31.5843 10.0869 30.9694C9.28028 30.3546 8.66522 29.508 8.31789 28.5343C7.97057 27.5607 7.90624 26.5028 8.13286 25.4917C8.35949 24.4805 8.86712 23.5605 9.59291 22.8454C10.3187 22.1304 11.2308 21.6518 12.2163 21.4688C13.2017 21.2859 14.2173 21.4066 15.1373 21.8161C16.0572 22.2256 16.8412 22.9058 17.3921 23.7726C17.943 24.6394 18.2366 25.6547 18.2367 26.6928L18.2302 26.9662C18.1626 28.3248 17.5946 29.6045 16.6433 30.5412C15.6921 31.478 14.4302 32.0002 13.1183 32.0002V29.6518C14.694 29.6518 15.9719 28.3266 15.9719 26.6928Z" fill="#464646"/>
<path d="M29.734 26.6927C29.7337 26.1079 29.5661 25.5363 29.2526 25.0502C28.939 24.5641 28.4935 24.1853 27.9723 23.9618C27.4511 23.7382 26.8778 23.6799 26.3246 23.7942C25.7715 23.9085 25.2635 24.1902 24.8648 24.6039C24.4661 25.0175 24.1946 25.5445 24.0847 26.1181C23.9748 26.6917 24.0314 27.2862 24.2473 27.8265C24.4632 28.3668 24.8287 28.8285 25.2977 29.1534C25.7667 29.4783 26.318 29.6517 26.882 29.6517V32.0001L26.6183 31.9934C25.6186 31.9399 24.6559 31.5836 23.8495 30.9686C23.043 30.3535 22.4282 29.5068 22.0811 28.5332C21.7341 27.5595 21.67 26.5017 21.8968 25.4907C22.1236 24.4796 22.6313 23.5598 23.3571 22.8449C24.083 22.13 24.9951 21.6516 25.9805 21.4687C26.9659 21.2859 27.9814 21.4067 28.9013 21.8162C29.8211 22.2257 30.605 22.906 31.1558 23.7727C31.7067 24.6395 32.0003 25.6547 32.0004 26.6927L31.9939 26.9662C31.9263 28.3247 31.3582 29.6044 30.407 30.5412C29.4557 31.4779 28.1939 32.0002 26.882 32.0001V29.6517C28.456 29.6517 29.734 28.3265 29.734 26.6927Z" fill="#464646"/>
<path d="M19.0509 17.4835C19.2552 17.2549 19.5386 17.1197 19.839 17.1077C20.1393 17.0958 20.4319 17.208 20.6524 17.4198C20.873 17.6316 21.0033 17.9255 21.0149 18.2369C21.0264 18.5484 20.9181 18.8518 20.7139 19.0804L16.33 23.9953C16.1258 24.2239 15.8423 24.3591 15.542 24.3711C15.2416 24.383 14.949 24.2708 14.7285 24.059C14.508 23.8472 14.3776 23.5533 14.3661 23.2419C14.3545 22.9305 14.4628 22.627 14.667 22.3984L19.0509 17.4835ZM27.1943 8.35843C27.4001 8.13752 27.6812 8.00901 27.9773 8.00046C28.2733 7.9919 28.5609 8.10397 28.7782 8.31265C28.9955 8.52132 29.1253 8.80999 29.1398 9.11675C29.1543 9.42351 29.0523 9.72395 28.8557 9.95365L23.6484 15.791C23.5493 15.9109 23.4278 16.0088 23.2913 16.0789C23.1549 16.149 23.0062 16.1898 22.8541 16.1989C22.7021 16.208 22.5498 16.1852 22.4065 16.1319C22.2632 16.0786 22.1316 15.9959 22.0199 15.8886C21.9081 15.7814 21.8183 15.6519 21.7559 15.5078C21.6935 15.3638 21.6597 15.2082 21.6566 15.0503C21.6536 14.8924 21.6813 14.7355 21.738 14.589C21.7948 14.4425 21.8795 14.3093 21.987 14.1975L27.1943 8.35843Z" fill="#464646"/>
<path d="M12.0133 8.48211C11.9081 8.37307 11.7833 8.28658 11.6459 8.22757C11.5085 8.16856 11.3612 8.13818 11.2125 8.13818C11.0638 8.13818 10.9165 8.16856 10.7791 8.22757C10.6418 8.28658 10.5169 8.37307 10.4118 8.48211C10.3066 8.59115 10.2232 8.7206 10.1663 8.86307C10.1094 9.00553 10.0801 9.15823 10.0801 9.31243C10.0801 9.46664 10.1094 9.61933 10.1663 9.7618C10.2232 9.90426 10.3066 10.0337 10.4118 10.1427L23.3209 23.5285C23.426 23.6375 23.5509 23.724 23.6883 23.783C23.8256 23.842 23.9729 23.8724 24.1216 23.8724C24.2703 23.8724 24.4176 23.842 24.555 23.783C24.6924 23.724 24.8172 23.6375 24.9224 23.5285C25.0275 23.4195 25.1109 23.29 25.1679 23.1475C25.2248 23.0051 25.2541 22.8524 25.2541 22.6982C25.2541 22.544 25.2248 22.3913 25.1679 22.2488C25.1109 22.1063 25.0275 21.9769 24.9224 21.8679L12.0133 8.48211Z" fill="#464646"/>
</g>
</g>
<defs>
<clipPath id="clip0_864_9589">
<rect width="40" height="40" fill="white"/>
</clipPath>
</defs>
</svg>
