<svg width="40" height="40" viewBox="0 0 40 40" fill="none" xmlns="http://www.w3.org/2000/svg">
<path d="M17.6925 10.7686H9.99976V18.4613H17.6925V10.7686Z" stroke="url(#paint0_linear_62_17751)" stroke-width="2" stroke-linecap="round" stroke-linejoin="round"/>
<path d="M29.6159 30.0006H21.9231" stroke="url(#paint1_linear_62_17751)" stroke-width="2" stroke-linecap="round" stroke-linejoin="round"/>
<path d="M21.9231 22.3076H29.6159" stroke="url(#paint2_linear_62_17751)" stroke-width="2" stroke-linecap="round" stroke-linejoin="round"/>
<path d="M21.9231 26.154H29.6159" stroke="url(#paint3_linear_62_17751)" stroke-width="2" stroke-linecap="round" stroke-linejoin="round"/>
<path d="M30.0004 18.4612H21.5383L25.7694 9.99915L30.0004 18.4612Z" stroke="url(#paint4_linear_62_17751)" stroke-width="2" stroke-linecap="round" stroke-linejoin="round"/>
<path d="M13.8461 30.0004C15.9705 30.0004 17.6925 28.2783 17.6925 26.154C17.6925 24.0297 15.9705 22.3076 13.8461 22.3076C11.7218 22.3076 9.99976 24.0297 9.99976 26.154C9.99976 28.2783 11.7218 30.0004 13.8461 30.0004Z" stroke="url(#paint5_linear_62_17751)" stroke-width="2" stroke-linecap="round" stroke-linejoin="round"/>
<defs>
<linearGradient id="paint0_linear_62_17751" x1="9.99976" y1="14.6149" x2="17.6925" y2="14.6149" gradientUnits="userSpaceOnUse">
<stop stop-color="#EFAF00"/>
<stop offset="1" stop-color="#FF9500"/>
</linearGradient>
<linearGradient id="paint1_linear_62_17751" x1="21.9231" y1="30.5006" x2="29.6159" y2="30.5006" gradientUnits="userSpaceOnUse">
<stop stop-color="#EFAF00"/>
<stop offset="1" stop-color="#FF9500"/>
</linearGradient>
<linearGradient id="paint2_linear_62_17751" x1="21.9231" y1="22.8076" x2="29.6159" y2="22.8076" gradientUnits="userSpaceOnUse">
<stop stop-color="#EFAF00"/>
<stop offset="1" stop-color="#FF9500"/>
</linearGradient>
<linearGradient id="paint3_linear_62_17751" x1="21.9231" y1="26.654" x2="29.6159" y2="26.654" gradientUnits="userSpaceOnUse">
<stop stop-color="#EFAF00"/>
<stop offset="1" stop-color="#FF9500"/>
</linearGradient>
<linearGradient id="paint4_linear_62_17751" x1="21.5383" y1="14.2302" x2="30.0004" y2="14.2302" gradientUnits="userSpaceOnUse">
<stop stop-color="#EFAF00"/>
<stop offset="1" stop-color="#FF9500"/>
</linearGradient>
<linearGradient id="paint5_linear_62_17751" x1="9.99976" y1="26.154" x2="17.6925" y2="26.154" gradientUnits="userSpaceOnUse">
<stop stop-color="#EFAF00"/>
<stop offset="1" stop-color="#FF9500"/>
</linearGradient>
</defs>
</svg>
