<svg width="40" height="40" viewBox="0 0 40 40" fill="none" xmlns="http://www.w3.org/2000/svg">
<path d="M15.8795 25.5L14.7463 30.0031C14.6777 30.301 14.5289 30.5417 14.2999 30.725C14.071 30.9083 13.7963 31 13.4758 31C13.0409 31 12.6861 30.8281 12.4114 30.4844C12.1367 30.1406 12.0566 29.7625 12.171 29.35L13.1325 25.5H9.38967C8.93183 25.5 8.56556 25.3226 8.29086 24.9679C8.01616 24.6131 7.93604 24.2176 8.0505 23.7812C8.11917 23.4604 8.27941 23.2083 8.53122 23.025C8.78303 22.8417 9.06918 22.75 9.38967 22.75H13.8192L15.1927 17.25H11.4499C10.9921 17.25 10.6258 17.0726 10.3511 16.7179C10.0764 16.3631 9.9963 15.9676 10.1108 15.5312C10.1794 15.2104 10.3397 14.9583 10.5915 14.775C10.8433 14.5917 11.1294 14.5 11.4499 14.5H15.8795L17.0126 9.99687C17.0813 9.69896 17.2301 9.45833 17.459 9.275C17.6879 9.09167 17.9626 9 18.2831 9C18.7181 9 19.0729 9.17188 19.3476 9.51562C19.6223 9.85938 19.7024 10.2375 19.5879 10.65L18.6265 14.5H24.1205L25.2537 9.99687C25.3223 9.69896 25.4711 9.45833 25.7 9.275C25.929 9.09167 26.2037 9 26.5242 9C26.9591 9 27.3139 9.17188 27.5886 9.51562C27.8633 9.85938 27.9434 10.2375 27.829 10.65L26.8675 14.5H30.6103C31.0682 14.5 31.4344 14.6774 31.7091 15.0321C31.9838 15.3869 32.064 15.7824 31.9495 16.2188C31.8808 16.5396 31.7206 16.7917 31.4688 16.975C31.217 17.1583 30.9308 17.25 30.6103 17.25H26.1808L24.8073 22.75H28.5501C29.0079 22.75 29.3742 22.9278 29.6489 23.2835C29.9236 23.6392 30.0037 24.0343 29.8892 24.4688C29.8206 24.7896 29.6603 25.0417 29.4085 25.225C29.1567 25.4083 28.8706 25.5 28.5501 25.5H24.1205L22.9874 30.0031C22.9187 30.301 22.7699 30.5417 22.541 30.725C22.3121 30.9083 22.0374 31 21.7169 31C21.2819 31 20.9271 30.8281 20.6524 30.4844C20.3777 30.1406 20.2976 29.7625 20.4121 29.35L21.3735 25.5H15.8795ZM16.5662 22.75H22.0603L23.4338 17.25H17.9397L16.5662 22.75Z" fill="url(#paint0_linear_62_17712)"/>
<defs>
<linearGradient id="paint0_linear_62_17712" x1="8" y1="20" x2="32" y2="20" gradientUnits="userSpaceOnUse">
<stop stop-color="#EFAF00"/>
<stop offset="1" stop-color="#FF9500"/>
</linearGradient>
</defs>
</svg>
