<svg width="140" height="178" viewBox="0 0 140 178" fill="none" xmlns="http://www.w3.org/2000/svg">
<path d="M2.5 155V26C2.5 14.9543 11.4543 6 22.5 6H80.5L133.5 59V155C133.5 166.046 124.546 175 113.5 175H22.5C11.4543 175 2.5 166.046 2.5 155Z" fill="#FFF8E5" stroke="url(#paint0_linear_398_17506)" stroke-width="5"/>
<path d="M78.5 41V4.82843C78.5 3.04662 80.6543 2.15428 81.9142 3.41421L136.086 57.5858C137.346 58.8457 136.453 61 134.672 61H98.5C87.4543 61 78.5 52.0457 78.5 41Z" fill="url(#paint1_linear_398_17506)" stroke="url(#paint2_linear_398_17506)" stroke-width="5"/>
<defs>
<linearGradient id="paint0_linear_398_17506" x1="2.5" y1="90.5" x2="133.5" y2="90.5" gradientUnits="userSpaceOnUse">
<stop stop-color="#EFAF00"/>
<stop offset="1" stop-color="#FF9500"/>
</linearGradient>
<linearGradient id="paint1_linear_398_17506" x1="78.5" y1="30.5" x2="139.5" y2="30.5" gradientUnits="userSpaceOnUse">
<stop stop-color="#EFAF00"/>
<stop offset="1" stop-color="#FF9500"/>
</linearGradient>
<linearGradient id="paint2_linear_398_17506" x1="78.5" y1="30.5" x2="139.5" y2="30.5" gradientUnits="userSpaceOnUse">
<stop stop-color="#EFAF00"/>
<stop offset="1" stop-color="#FF9500"/>
</linearGradient>
</defs>
</svg>
