<svg width="190" height="185" viewBox="0 0 190 185" fill="none" xmlns="http://www.w3.org/2000/svg">
<path d="M161.957 28.3639C161.957 28.0313 177.919 69.9315 138.014 78.9103C140.342 79.3536 146.528 79.5752 152.646 76.9149C149.432 87.3346 137.016 108.64 113.073 110.502C115.069 111.832 120.256 114.093 125.045 112.497C122.273 116.044 112.408 122.873 95.1161 121.809C92.0751 126.98 86.5968 135.672 82.8401 139.948C83.1404 140.099 83.1554 140.106 83.1557 140.107L83.1547 140.11C83.1539 140.111 83.1526 140.113 83.1518 140.115C83.15 140.118 83.1478 140.122 83.1459 140.125C83.1422 140.133 83.1383 140.14 83.1342 140.148C83.1259 140.163 83.1166 140.18 83.1068 140.197C83.0873 140.231 83.0645 140.269 83.0374 140.311C82.9836 140.395 82.9117 140.498 82.8156 140.624C82.6239 140.875 82.3257 141.229 81.8609 141.716C80.9329 142.688 79.3047 144.227 76.4504 146.578C73.0573 149.372 69.5964 148.93 66.9661 147.897C65.6832 147.393 64.5498 146.733 63.7132 146.253C63.2757 146.002 62.9483 145.818 62.6852 145.692C62.5643 145.635 62.4886 145.608 62.4517 145.595C62.248 145.62 61.8319 145.744 61.152 146.067C60.4296 146.411 59.613 146.879 58.7375 147.384C57.8887 147.873 56.9769 148.403 56.15 148.805C55.3877 149.176 54.4293 149.58 53.5488 149.58C53.2134 149.58 52.8344 149.508 52.4749 149.296C52.1108 149.081 51.8642 148.779 51.7078 148.475C51.4282 147.931 51.4149 147.337 51.4303 146.949C51.4623 146.144 51.6988 145.081 51.868 144.216C52.0564 143.253 52.2001 142.378 52.1876 141.652C52.1794 141.175 52.1058 140.901 52.0293 140.744C51.8684 140.788 51.6287 140.879 51.3033 141.05C50.449 141.498 49.3507 142.304 48.1285 143.344C45.7047 145.407 43.0626 148.161 41.3704 150.072C40.8209 150.692 39.8725 150.749 39.252 150.2C38.6315 149.65 38.5734 148.702 39.123 148.081C40.8671 146.112 43.6122 143.246 46.182 141.059C47.4564 139.974 48.7572 138.996 49.9098 138.392C50.4807 138.093 51.1055 137.836 51.7303 137.745C52.3264 137.658 53.0811 137.706 53.7315 138.191L53.8605 138.293L54.051 138.47C54.96 139.377 55.1723 140.609 55.1894 141.6C55.208 142.681 54.9989 143.843 54.8132 144.792C54.7007 145.367 54.6031 145.846 54.5337 146.243C54.6292 146.2 54.7313 146.157 54.8367 146.106C55.5475 145.76 56.3573 145.291 57.2375 144.783C58.091 144.291 59.0124 143.761 59.8612 143.357C60.6539 142.979 61.6262 142.588 62.5269 142.588L62.7399 142.598C63.2319 142.644 63.6805 142.841 63.975 142.982C64.3612 143.165 64.7922 143.412 65.2063 143.649C66.0739 144.146 67.0197 144.692 68.0644 145.102C70.0896 145.898 72.2821 146.121 74.542 144.26C76.8559 142.354 78.3021 141.029 79.1962 140.143C80.0061 137.026 83.2636 130.323 92.1231 117.486C91.6797 108.95 92.389 90.8153 98.7736 86.5585V99.5274C99.328 90.4376 105.026 70.2638 123.382 62.283C122.496 64.8325 120.988 70.1979 122.052 71.2621C123.05 66.939 127.705 57.0286 138.347 51.9739C151.647 45.656 161.955 28.6985 161.957 28.3639Z" fill="url(#paint0_linear_311_14249)"/>
<path d="M17.6337 45.6558C5.39613 45.6559 3.00186 53.9693 3.00183 67.6036H27.61C27.61 59.2901 26.6788 45.6557 17.6337 45.6558Z" fill="url(#paint1_linear_311_14249)"/>
<path d="M17.6337 45.6558C5.39613 45.6559 3.00186 53.9693 3.00183 67.6036H27.61M17.6337 45.6558C29.8712 45.6557 79.0431 45.6558 102.099 45.6558C110.413 45.6558 115.069 51.9741 115.069 60.9528M17.6337 45.6558C26.6788 45.6557 27.61 59.2901 27.61 67.6036M27.61 67.6036C27.61 98.1975 27.61 161.713 27.61 171.024C27.61 180.335 35.9235 181.998 41.2442 181.998H115.069V123.803" stroke="url(#paint2_linear_311_14249)" stroke-width="6"/>
<path d="M38.5838 180.336C52.5506 180.336 48.7818 165.149 44.5696 160.05H134.356C138.347 164.595 142.404 176.279 128.038 183.994L38.5838 183.328V180.336Z" fill="url(#paint3_linear_311_14249)" stroke="url(#paint4_linear_311_14249)"/>
<path d="M130.174 0.746642L128.457 7.27572C128.38 7.56999 128.172 7.81305 127.894 7.9362L121.929 10.5764C121.179 10.9084 121.125 11.9523 121.837 12.3598L127.852 15.8035C128.146 15.9718 128.335 16.2773 128.354 16.6154L128.745 23.5451C128.794 24.4031 129.83 24.8048 130.444 24.2038L135.033 19.7129C135.29 19.4616 135.662 19.3673 136.007 19.4656L142.942 21.44C143.74 21.6674 144.452 20.8793 144.146 20.1078L141.5 13.4581C141.393 13.1873 141.408 12.8829 141.543 12.6247L144.704 6.57985C145.072 5.87458 144.51 5.04195 143.718 5.12053L136.993 5.78777C136.662 5.82057 136.337 5.68711 136.125 5.43157L131.911 0.361632C131.391 -0.264314 130.381 -0.0404598 130.174 0.746642Z" fill="url(#paint5_linear_311_14249)"/>
<path d="M183.99 19.0866L180.976 20.2337C180.692 20.3419 180.373 20.3149 180.111 20.1603L177.466 18.5991C176.76 18.1822 175.88 18.7456 175.962 19.5616L176.295 22.8436C176.329 23.1805 176.19 23.5118 175.926 23.7241L173.418 25.7411C172.749 26.2797 173.025 27.3562 173.871 27.5061L176.71 28.0091C177.064 28.0717 177.357 28.3191 177.478 28.6573L178.635 31.8916C178.915 32.6734 179.97 32.7941 180.419 32.0956L182.284 29.1945C182.441 28.9493 182.698 28.7851 182.987 28.7446L186.266 28.2853C187.054 28.1749 187.404 27.2332 186.879 26.6348L184.74 24.1949C184.521 23.945 184.441 23.6027 184.525 23.2813L185.313 20.2756C185.52 19.4883 184.75 18.797 183.99 19.0866Z" fill="url(#paint6_linear_311_14249)"/>
<path d="M180.142 56.7314L177.085 60.9556C176.907 61.2021 176.626 61.354 176.322 61.3685L171.309 61.6067C170.49 61.6456 170.063 62.5997 170.579 63.2366L173.949 67.3896C174.162 67.6526 174.228 68.0057 174.124 68.3279L172.487 73.3883C172.223 74.206 173.044 74.9546 173.834 74.6157L178.318 72.6915C178.648 72.5499 179.029 72.596 179.315 72.8124L183.757 76.165C184.42 76.6653 185.368 76.1873 185.36 75.357L185.308 69.8167C185.306 69.5252 185.43 69.2471 185.649 69.0549L189.628 65.5665C190.226 65.0418 190.002 64.0623 189.235 63.8498L184.198 62.454C183.878 62.3653 183.623 62.1234 183.517 61.8084L181.901 56.9993C181.642 56.2278 180.619 56.072 180.142 56.7314Z" fill="url(#paint7_linear_311_14249)"/>
<defs>
<linearGradient id="paint0_linear_311_14249" x1="38.7458" y1="89.4696" x2="165.11" y2="89.4696" gradientUnits="userSpaceOnUse">
<stop stop-color="#EFAF00"/>
<stop offset="1" stop-color="#FF9500"/>
</linearGradient>
<linearGradient id="paint1_linear_311_14249" x1="3.00183" y1="113.827" x2="115.069" y2="113.827" gradientUnits="userSpaceOnUse">
<stop stop-color="#EFAF00"/>
<stop offset="1" stop-color="#FF9500"/>
</linearGradient>
<linearGradient id="paint2_linear_311_14249" x1="3.00183" y1="113.827" x2="115.069" y2="113.827" gradientUnits="userSpaceOnUse">
<stop stop-color="#EFAF00"/>
<stop offset="1" stop-color="#FF9500"/>
</linearGradient>
<linearGradient id="paint3_linear_311_14249" x1="38.5838" y1="172.022" x2="138.107" y2="172.022" gradientUnits="userSpaceOnUse">
<stop stop-color="#EFAF00"/>
<stop offset="1" stop-color="#FF9500"/>
</linearGradient>
<linearGradient id="paint4_linear_311_14249" x1="38.5838" y1="172.022" x2="138.107" y2="172.022" gradientUnits="userSpaceOnUse">
<stop stop-color="#EFAF00"/>
<stop offset="1" stop-color="#FF9500"/>
</linearGradient>
<linearGradient id="paint5_linear_311_14249" x1="120.827" y1="14.3966" x2="146.377" y2="8.42171" gradientUnits="userSpaceOnUse">
<stop stop-color="#EFAF00"/>
<stop offset="1" stop-color="#FF9500"/>
</linearGradient>
<linearGradient id="paint6_linear_311_14249" x1="174.504" y1="19.029" x2="186.648" y2="29.6843" gradientUnits="userSpaceOnUse">
<stop stop-color="#EFAF00"/>
<stop offset="1" stop-color="#FF9500"/>
</linearGradient>
<linearGradient id="paint7_linear_311_14249" x1="168.974" y1="64.2572" x2="190.607" y2="67.2946" gradientUnits="userSpaceOnUse">
<stop stop-color="#EFAF00"/>
<stop offset="1" stop-color="#FF9500"/>
</linearGradient>
</defs>
</svg>
