<svg width="173" height="172" viewBox="0 0 173 172" fill="none" xmlns="http://www.w3.org/2000/svg">
<path d="M67.1178 48.0567C70.5775 46.0428 75.2307 47.0724 76.9264 50.7795C86.1024 70.8406 88.6341 92.8219 85.4668 110.688C82.3026 128.536 73.4219 142.384 59.6768 145.967C45.5165 149.659 31.4183 140.847 20.4923 126.274C9.55271 111.682 1.70025 91.2074 0.0227964 71.2873C-0.334044 67.0495 3.55547 63.9226 7.69927 64.1896C29.8495 65.6175 53.9482 55.7234 67.1178 48.0567ZM51.0256 109.706C40.6013 112.424 36.3795 121.462 35.8345 125.467C35.755 126.052 36.3977 126.252 36.803 125.824C39.2625 123.224 45.4982 117.538 52.4964 115.347C58.7518 113.388 65.6944 115.277 70.4434 115.792C71.0327 115.856 71.3657 115.21 70.9603 114.777C68.1663 111.794 61.566 106.958 51.0256 109.706ZM37.2331 85.0866C37.1884 84.4986 36.4567 84.3276 36.0443 84.7492C33.4711 87.3811 27.8478 91.1046 19.6183 91.3658C19.0258 91.3848 18.7012 92.0582 19.122 92.4759C21.6204 94.956 26.4255 97.8325 31.5561 95.104C36.5272 92.4602 37.4507 87.9508 37.2331 85.0866ZM50.9907 80.6352C50.4103 80.5137 49.9355 81.0928 50.2459 81.598C52.0888 84.5975 56.0801 88.526 61.7094 87.0849C67.1637 85.6885 69.1247 81.5246 69.589 78.6899C69.6844 78.1078 69.0136 77.769 68.5134 78.0816C65.3918 80.0321 59.0493 82.3228 50.9907 80.6352Z" fill="url(#paint0_linear_311_14269)"/>
<path d="M96.8941 39.6583C96.4376 39.6777 96.0299 39.4557 95.8057 39.1125C95.5725 38.7556 95.545 38.2691 95.8545 37.8631C97.4566 35.763 100.988 33.3946 106.705 34.7487C112.568 36.1379 114.93 40.9246 115.612 44.1323C115.723 44.652 115.477 45.1012 115.09 45.3239C114.714 45.5404 114.216 45.5384 113.808 45.2517C107.017 40.471 100.365 39.5095 96.8941 39.6583Z" fill="url(#paint1_linear_311_14269)" stroke="url(#paint2_linear_311_14269)"/>
<path d="M128.367 49.4538C127.921 49.5249 127.498 49.345 127.245 49.0192C126.984 48.6826 126.922 48.206 127.176 47.7848C128.558 45.4919 131.875 42.6868 137.739 43.6105C143.44 44.5084 146.043 49.3074 147.034 52.6345C147.203 53.2025 146.948 53.7 146.53 53.9306C146.126 54.1532 145.585 54.1237 145.167 53.7634C139.601 48.9724 133.649 48.6095 128.367 49.4538Z" fill="url(#paint3_linear_311_14269)" stroke="url(#paint4_linear_311_14269)"/>
<path d="M132.602 74.0828C133.008 73.8799 133.512 73.8817 133.84 74.2187C134.004 74.3873 134.088 74.6148 134.076 74.8555C134.063 75.0906 133.961 75.3067 133.81 75.4877C131.077 78.7587 122.603 84.7136 111.499 81.3815C100.935 78.2114 96.902 70.4778 95.6744 65.7537C95.5233 65.1722 95.7948 64.6547 96.2834 64.4682C96.7488 64.2908 97.2943 64.4583 97.6255 64.9245C99.07 66.9576 101.194 69.6336 103.676 72.0109C106.165 74.3957 108.973 76.44 111.783 77.2693C115.791 78.4524 118.799 78.7361 121.88 78.2008C124.979 77.6623 128.19 76.2895 132.602 74.0828Z" fill="url(#paint5_linear_311_14269)" stroke="url(#paint6_linear_311_14269)"/>
<path d="M78.0567 52.8103C78.6876 54.3117 79.2836 55.8214 79.8422 57.338C79.2836 55.8214 78.6876 54.3117 78.0567 52.8103ZM64.5967 4.2792C68.0069 2.20162 72.7199 3.03523 74.4959 6.71377C81.211 20.6245 83.7142 35.8187 82.4178 48.7121C82.2269 48.2804 82.0349 47.8488 81.8382 47.4189C78.6223 40.3885 70.2461 39.0318 64.5777 42.3315C55.6356 47.5372 41.6643 53.6722 27.0006 56.4229C21.4435 47.2038 17.3467 36.1689 15.6889 25.1536C15.0547 20.9377 18.8274 17.6519 22.9638 17.6001C38.5873 17.4041 54.8891 10.1948 64.5967 4.2792ZM31.9253 61.1493C32.6054 60.9952 33.2827 60.8341 33.9571 60.668C33.6231 60.7503 33.2886 60.8322 32.9531 60.9116L31.9253 61.1493ZM37.6 59.7071C37.5483 59.7216 37.4965 59.7362 37.4447 59.7507C37.4965 59.7362 37.5483 59.7216 37.6 59.7071ZM52.2154 54.6412L51.9777 54.7365C52.2707 54.6162 52.5622 54.4956 52.8518 54.3743C52.6403 54.4629 52.4287 54.5532 52.2154 54.6412ZM54.1429 53.8256C53.8326 53.9593 53.5206 54.0937 53.2061 54.2264C53.5206 54.0937 53.8326 53.9592 54.1429 53.8256ZM55.3236 53.3107C55.0564 53.4288 54.7876 53.5469 54.517 53.6644C54.7876 53.547 55.0564 53.4288 55.3236 53.3107ZM56.4842 52.792C56.275 52.8868 56.0646 52.9812 55.8532 53.0757C56.0646 52.9812 56.275 52.8868 56.4842 52.792ZM57.7099 52.229C57.5026 52.3255 57.2942 52.4221 57.0845 52.5183C57.2942 52.4221 57.5026 52.3255 57.7099 52.229ZM58.8443 51.6949C58.6874 51.7697 58.5298 51.8445 58.3715 51.9192C58.5298 51.8445 58.6874 51.7697 58.8443 51.6949ZM60.1115 51.0818C59.9022 51.1843 59.6919 51.2874 59.4798 51.3899C59.6919 51.2874 59.9022 51.1843 60.1115 51.0818ZM61.9705 50.1547C61.534 50.3775 61.0893 50.5988 60.6386 50.8221L61.9705 50.1547ZM64.8092 48.6582L64.6884 48.7219C64.7984 48.6622 64.9076 48.6021 65.0164 48.5425C64.9472 48.5804 64.8788 48.6202 64.8092 48.6582ZM66.3307 47.812C66.1774 47.8988 66.0224 47.9852 65.8664 48.0725C66.0224 47.9852 66.1774 47.8988 66.3307 47.812ZM67.409 47.1946C67.3938 47.2034 67.3784 47.2118 67.3633 47.2206C67.3782 47.212 67.3932 47.2035 67.408 47.1948C67.5309 47.1233 67.6557 47.0561 67.7815 46.9924C67.656 47.0558 67.5317 47.1231 67.409 47.1946ZM67.8497 46.9595C67.9133 46.9282 67.9765 46.8965 68.0407 46.8673C68.0876 46.8459 68.1351 46.8263 68.1823 46.8061C68.0705 46.8541 67.9597 46.9054 67.8497 46.9595ZM69.0267 46.5042C68.7536 46.5826 68.4835 46.6784 68.2177 46.7908C68.4835 46.6786 68.7535 46.5826 69.0267 46.5042ZM44.4413 33.0551C44.3984 32.4669 43.6628 32.3178 43.2554 32.7442C41.3104 34.781 37.3333 37.5221 31.4866 38.0446C30.896 38.0974 30.607 38.7829 31.0575 39.1685C33.1031 40.9195 36.7134 42.706 40.3875 40.5516C43.9148 38.483 44.6009 35.2454 44.4413 33.0551ZM55.1271 28.9269C54.541 28.8392 54.0986 29.4359 54.4449 29.9168C56.0196 32.101 59.1065 34.6893 63.1854 33.4624C67.1015 32.2843 68.5323 29.2995 68.8939 27.1334C68.9907 26.5518 68.3106 26.2342 67.8142 26.5523C65.4436 28.0727 60.9317 29.7983 55.1271 28.9269Z" fill="url(#paint7_linear_311_14269)"/>
<path d="M40.905 155.718C47.0623 161.877 63.6411 170.834 80.6982 157.391M80.6982 157.391L68.2405 155.82M80.6982 157.391L77.6228 170.241" stroke="url(#paint8_linear_311_14269)" stroke-width="3.51467" stroke-linecap="round" stroke-linejoin="round"/>
<path d="M91.2771 150.215C93.6435 141.834 116.756 96.9865 158.588 132.666M158.588 132.666L146.997 132.877M158.588 132.666L157.903 120.796" stroke="url(#paint9_linear_311_14269)" stroke-width="3.51467" stroke-linecap="round" stroke-linejoin="round"/>
<path d="M101.99 5.13509C115.893 16.5879 140.686 22.9059 161.004 19.8957C165.326 19.2554 169.555 22.5049 169.072 26.8474C163.932 73.1536 132.116 112.521 104.722 105.038C76.7644 97.4006 73.5576 45.4161 90.3422 6.83634C92.237 2.48104 98.3243 2.11513 101.99 5.13509Z" stroke="url(#paint10_linear_311_14269)" stroke-width="6.32641"/>
<defs>
<linearGradient id="paint0_linear_311_14269" x1="8.82754" y1="111.097" x2="88.901" y2="90.2206" gradientUnits="userSpaceOnUse">
<stop stop-color="#EFAF00"/>
<stop offset="1" stop-color="#FF9500"/>
</linearGradient>
<linearGradient id="paint1_linear_311_14269" x1="116.135" y1="43.9993" x2="97.3299" y2="35.4235" gradientUnits="userSpaceOnUse">
<stop stop-color="#EFAF00"/>
<stop offset="1" stop-color="#FF9500"/>
</linearGradient>
<linearGradient id="paint2_linear_311_14269" x1="116.135" y1="43.9993" x2="97.3299" y2="35.4235" gradientUnits="userSpaceOnUse">
<stop stop-color="#EFAF00"/>
<stop offset="1" stop-color="#FF9500"/>
</linearGradient>
<linearGradient id="paint3_linear_311_14269" x1="147.881" y1="52.311" x2="128.345" y2="45.4991" gradientUnits="userSpaceOnUse">
<stop stop-color="#EFAF00"/>
<stop offset="1" stop-color="#FF9500"/>
</linearGradient>
<linearGradient id="paint4_linear_311_14269" x1="147.881" y1="52.311" x2="128.345" y2="45.4991" gradientUnits="userSpaceOnUse">
<stop stop-color="#EFAF00"/>
<stop offset="1" stop-color="#FF9500"/>
</linearGradient>
<linearGradient id="paint5_linear_311_14269" x1="94.3224" y1="66.7517" x2="131.783" y2="80.5835" gradientUnits="userSpaceOnUse">
<stop stop-color="#EFAF00"/>
<stop offset="1" stop-color="#FF9500"/>
</linearGradient>
<linearGradient id="paint6_linear_311_14269" x1="94.3224" y1="66.7517" x2="131.783" y2="80.5835" gradientUnits="userSpaceOnUse">
<stop stop-color="#EFAF00"/>
<stop offset="1" stop-color="#FF9500"/>
</linearGradient>
<linearGradient id="paint7_linear_311_14269" x1="20.4122" y1="45.044" x2="81.9375" y2="29.0032" gradientUnits="userSpaceOnUse">
<stop stop-color="#EFAF00"/>
<stop offset="1" stop-color="#FF9500"/>
</linearGradient>
<linearGradient id="paint8_linear_311_14269" x1="43.8462" y1="166.999" x2="80.6982" y2="157.391" gradientUnits="userSpaceOnUse">
<stop stop-color="#EFAF00"/>
<stop offset="1" stop-color="#FF9500"/>
</linearGradient>
<linearGradient id="paint9_linear_311_14269" x1="88.5258" y1="139.662" x2="158.093" y2="121.525" gradientUnits="userSpaceOnUse">
<stop stop-color="#EFAF00"/>
<stop offset="1" stop-color="#FF9500"/>
</linearGradient>
<linearGradient id="paint10_linear_311_14269" x1="78.5316" y1="45.4466" x2="159.481" y2="67.5591" gradientUnits="userSpaceOnUse">
<stop stop-color="#EFAF00"/>
<stop offset="1" stop-color="#FF9500"/>
</linearGradient>
</defs>
</svg>
