<svg width="123" height="199" viewBox="0 0 123 199" fill="none" xmlns="http://www.w3.org/2000/svg">
<path d="M59.7481 0.39169L53.9575 11.3294C53.8528 11.5272 53.6637 11.6667 53.4437 11.7083L41.6023 13.9486C41.0094 14.0607 40.7959 14.7995 41.2375 15.2107L50.5547 23.8853C50.737 24.0551 50.8211 24.3056 50.7782 24.551L48.5498 37.2845C48.4408 37.9073 49.1159 38.3687 49.6565 38.041L60.0519 31.7408C60.2779 31.6038 60.56 31.5985 60.791 31.7268L72.3612 38.1547C72.8952 38.4514 73.5374 38.0061 73.4467 37.402L71.5102 24.4915C71.4784 24.2795 71.5406 24.0641 71.6806 23.9016L79.772 14.5156C80.1544 14.0721 79.891 13.3814 79.3105 13.305L67.0625 11.6934C66.8201 11.6616 66.6094 11.5114 66.5001 11.2928L61.0571 0.406912C60.7894 -0.12866 60.0282 -0.137511 59.7481 0.39169Z" fill="url(#paint0_linear_311_14220)"/>
<path d="M3.99854 39.4899L5.47926 47.4359C5.52027 47.656 5.45891 47.8828 5.31254 48.0521L0.180242 53.9909C-0.214345 54.4475 0.07786 55.1588 0.679466 55.2062L8.96222 55.8582C9.21061 55.8778 9.43225 56.0217 9.55125 56.2406L13.5606 63.6167C13.8626 64.1722 14.6781 64.1137 14.8978 63.5209L17.6246 56.1605C17.7164 55.9126 17.934 55.7331 18.1947 55.6899L26.7188 54.279C27.3215 54.1792 27.5475 53.4312 27.1008 53.0144L20.8559 47.1876C20.6991 47.0413 20.6139 46.834 20.6225 46.6197L20.9498 38.5068C20.9734 37.9217 20.3377 37.5446 19.8356 37.8458L12.9097 42.0003C12.7 42.126 12.4416 42.1395 12.2201 42.0363L5.03318 38.6878C4.49041 38.4349 3.88885 38.9013 3.99854 39.4899Z" fill="url(#paint1_linear_311_14220)"/>
<path d="M96.4419 43.4389L97.1267 53.6228C97.1417 53.8462 97.0543 54.0642 96.8891 54.2153L89.5642 60.9174C89.119 61.3248 89.3261 62.0653 89.918 62.1827L100.214 64.2232C100.458 64.2717 100.662 64.4405 100.754 64.6718L104.708 74.5473C104.943 75.1343 105.76 75.1715 106.047 74.6084L110.584 65.7192C110.704 65.4838 110.941 65.3309 111.205 65.3185L122.107 64.8063C122.717 64.7777 123.029 64.0611 122.634 63.595L115.669 55.3747C115.53 55.2111 115.47 54.9952 115.503 54.7834L117.107 44.6763C117.199 44.098 116.612 43.6492 116.078 43.8897L106.785 48.0757C106.562 48.1761 106.304 48.1593 106.096 48.0309L97.5632 42.7631C97.0537 42.4485 96.4018 42.8414 96.4419 43.4389Z" fill="url(#paint2_linear_311_14220)"/>
<path d="M62.9948 97.6986C62.9948 96.5925 64.1819 96.0221 64.6982 97.0003L89.7038 144.388C90.522 145.939 90.4113 147.789 89.602 149.308C86.0389 155.994 81.7735 168.507 79.2957 176.495C78.6687 178.517 76.8074 179.908 74.6865 179.909H46.4797C44.1787 179.909 42.2109 178.281 41.5691 176.105C39.4111 168.784 34.4884 156.33 31.4213 148.915C30.8813 147.61 30.9396 146.136 31.5867 144.879L56.2117 97.0434C56.6977 96.0994 57.8407 96.6321 57.8407 97.6939V137.293C57.8407 138.7 56.9551 139.924 56.019 140.975C55.0922 142.015 54.529 143.387 54.5288 144.89C54.5288 148.143 57.1661 150.78 60.4187 150.78C63.6711 150.78 66.3076 148.143 66.3076 144.89C66.3075 143.387 65.7441 142.015 64.817 140.975C63.8806 139.924 62.9948 138.7 62.9948 137.292V97.6986Z" fill="url(#paint3_linear_311_14220)"/>
<path d="M41.816 198.123L44.4734 184.503C44.5409 184.158 44.8437 183.908 45.196 183.908H76.375C76.7272 183.908 77.0301 184.158 77.0976 184.503L79.755 198.123C79.8437 198.577 79.4956 199 79.0324 199H42.5385C42.0754 199 41.7273 198.577 41.816 198.123Z" fill="url(#paint4_linear_311_14220)"/>
<circle cx="14.0381" cy="96.303" r="6.62561" fill="url(#paint5_linear_311_14220)"/>
<circle cx="107.533" cy="102.929" r="4.41707" fill="url(#paint6_linear_311_14220)"/>
<circle cx="105.324" cy="19.7404" r="6.62561" fill="url(#paint7_linear_311_14220)"/>
<circle cx="16.2466" cy="13.1148" r="4.41707" fill="url(#paint8_linear_311_14220)"/>
<path d="M64.8345 52.1323C64.8345 57.2856 62.8569 80.8433 60.4174 80.8433C57.9779 80.8433 56.0003 57.6537 56.0003 52.1323C56.0003 49.6929 57.9779 47.7153 60.4174 47.7153C62.8569 47.7153 64.8345 49.6929 64.8345 52.1323Z" fill="url(#paint9_linear_311_14220)"/>
<path d="M38.3323 68.3283C39.8965 70.6748 45.327 81.8754 44.6168 88.5833C44.5463 89.2491 43.7306 89.3033 43.4417 88.6994C37.6104 76.507 29.7855 73.3383 28.0255 70.1687C26.1861 66.8559 28.1387 64.6099 30.2339 63.9112C33.5455 62.8068 36.9791 66.2985 38.3323 68.3283Z" fill="url(#paint10_linear_311_14220)"/>
<path d="M82.2254 75.9011C80.6611 78.2477 75.2307 89.4482 75.9409 96.1562C76.0113 96.8219 76.8271 96.8762 77.1159 96.2722C82.9472 84.0798 90.7722 80.9111 92.5321 77.7415C94.3715 74.4287 92.4189 72.1827 90.3237 71.484C87.0122 70.3796 83.5785 73.8713 82.2254 75.9011Z" fill="url(#paint11_linear_311_14220)"/>
<defs>
<linearGradient id="paint0_linear_311_14220" x1="40.1725" y1="19.0042" x2="80.6623" y2="19.0042" gradientUnits="userSpaceOnUse">
<stop stop-color="#EFAF00"/>
<stop offset="1" stop-color="#FF9500"/>
</linearGradient>
<linearGradient id="paint1_linear_311_14220" x1="1.30229" y1="57.7032" x2="23.3974" y2="40.1574" gradientUnits="userSpaceOnUse">
<stop stop-color="#EFAF00"/>
<stop offset="1" stop-color="#FF9500"/>
</linearGradient>
<linearGradient id="paint2_linear_311_14220" x1="90.6225" y1="65.3458" x2="119.781" y2="47.3059" gradientUnits="userSpaceOnUse">
<stop stop-color="#EFAF00"/>
<stop offset="1" stop-color="#FF9500"/>
</linearGradient>
<linearGradient id="paint3_linear_311_14220" x1="31.0544" y1="138.204" x2="90.2652" y2="138.204" gradientUnits="userSpaceOnUse">
<stop stop-color="#EFAF00"/>
<stop offset="1" stop-color="#FF9500"/>
</linearGradient>
<linearGradient id="paint4_linear_311_14220" x1="41.6448" y1="191.454" x2="79.9261" y2="191.454" gradientUnits="userSpaceOnUse">
<stop stop-color="#EFAF00"/>
<stop offset="1" stop-color="#FF9500"/>
</linearGradient>
<linearGradient id="paint5_linear_311_14220" x1="7.42633" y1="96.4704" x2="20.6776" y2="96.4704" gradientUnits="userSpaceOnUse">
<stop stop-color="#EFAF00"/>
<stop offset="1" stop-color="#FF9500"/>
</linearGradient>
<linearGradient id="paint6_linear_311_14220" x1="103.308" y1="103.113" x2="112.142" y2="103.113" gradientUnits="userSpaceOnUse">
<stop stop-color="#EFAF00"/>
<stop offset="1" stop-color="#FF9500"/>
</linearGradient>
<linearGradient id="paint7_linear_311_14220" x1="98.883" y1="19.7649" x2="112.134" y2="19.7649" gradientUnits="userSpaceOnUse">
<stop stop-color="#EFAF00"/>
<stop offset="1" stop-color="#FF9500"/>
</linearGradient>
<linearGradient id="paint8_linear_311_14220" x1="11.8517" y1="13.131" x2="20.6858" y2="13.131" gradientUnits="userSpaceOnUse">
<stop stop-color="#EFAF00"/>
<stop offset="1" stop-color="#FF9500"/>
</linearGradient>
<linearGradient id="paint9_linear_311_14220" x1="56.0003" y1="64.2793" x2="64.8345" y2="64.2793" gradientUnits="userSpaceOnUse">
<stop stop-color="#EFAF00"/>
<stop offset="1" stop-color="#FF9500"/>
</linearGradient>
<linearGradient id="paint10_linear_311_14220" x1="27.2922" y1="77.0569" x2="44.6805" y2="77.0569" gradientUnits="userSpaceOnUse">
<stop stop-color="#EFAF00"/>
<stop offset="1" stop-color="#FF9500"/>
</linearGradient>
<linearGradient id="paint11_linear_311_14220" x1="93.2655" y1="84.6297" x2="75.8772" y2="84.6297" gradientUnits="userSpaceOnUse">
<stop stop-color="#EFAF00"/>
<stop offset="1" stop-color="#FF9500"/>
</linearGradient>
</defs>
</svg>
