<svg width="62" height="62" viewBox="0 0 62 62" fill="none" xmlns="http://www.w3.org/2000/svg">
<path d="M39.5556 45.6288C37.05 45.6288 32.8737 46.3299 32.2222 47.948V47.984C30.7702 48.02 30.4268 47.984 29.7778 47.984C29.1276 46.3636 24.95 45.6625 22.4444 45.6625H9V12H23.6178C26.7723 12 29.5003 13.5392 30.9988 15.8108C32.4972 13.5392 35.2264 12 38.3822 12H53V45.6288H39.5556ZM29.7778 18.9646C29.7778 16.2508 26.6917 14.3215 23.6667 14.3215H11.4444V43.3409C11.4444 43.3409 20.1552 43.3409 22.4444 43.3409C24.8693 43.3003 28.6937 43.3653 29.7778 45.0612V43.7611C29.7313 42.1546 29.7753 39.9607 29.7778 39.8702V19.7133C29.7778 19.7122 29.7778 19.7122 29.7778 19.711V18.9646ZM50.5556 14.3192H38.3333C35.3083 14.3192 32.2222 16.2473 32.2222 18.9577V19.718C32.2222 19.7191 32.2222 19.7192 32.2222 19.7203V39.8423C32.2247 39.9317 32.2687 42.1256 32.2222 43.7286V45.0275C33.3063 43.3339 37.1307 43.2678 39.5556 43.3096C41.8448 43.3096 50.5556 43.3096 50.5556 43.3096V14.3192Z" fill="url(#paint0_linear_581_7615)"/>
<defs>
<linearGradient id="paint0_linear_581_7615" x1="9" y1="30" x2="53" y2="30" gradientUnits="userSpaceOnUse">
<stop stop-color="#EFAF00"/>
<stop offset="1" stop-color="#FF9500"/>
</linearGradient>
</defs>
</svg>
