<svg width="22" height="22" viewBox="0 0 22 22" fill="none" xmlns="http://www.w3.org/2000/svg">
<path d="M11.0002 10.5413C10.3924 10.5413 9.80948 10.2999 9.37971 9.87013C8.94994 9.44036 8.7085 8.85746 8.7085 8.24967C8.7085 7.64189 8.94994 7.05899 9.37971 6.62922C9.80948 6.19945 10.3924 5.95801 11.0002 5.95801C11.608 5.95801 12.1908 6.19945 12.6206 6.62922C13.0504 7.05899 13.2918 7.64189 13.2918 8.24967C13.2918 8.55062 13.2326 8.84862 13.1174 9.12666C13.0022 9.4047 12.8334 9.65733 12.6206 9.87013C12.4078 10.0829 12.1552 10.2517 11.8771 10.3669C11.5991 10.4821 11.3011 10.5413 11.0002 10.5413ZM11.0002 1.83301C9.29836 1.83301 7.66625 2.50905 6.46289 3.71241C5.25954 4.91576 4.5835 6.54787 4.5835 8.24967C4.5835 13.0622 11.0002 20.1663 11.0002 20.1663C11.0002 20.1663 17.4168 13.0622 17.4168 8.24967C17.4168 6.54787 16.7408 4.91576 15.5374 3.71241C14.3341 2.50905 12.702 1.83301 11.0002 1.83301Z" fill="#999999"/>
</svg>
