<svg width="49" height="54" viewBox="0 0 49 54" fill="none" xmlns="http://www.w3.org/2000/svg">
<path d="M45.3676 11.0613C45.5767 10.9985 45.8031 11.0249 45.9926 11.1335C46.182 11.2425 46.3184 11.425 46.3695 11.6375C47.26 15.3478 45.2936 18.8287 42.808 21.5935C40.5814 24.0702 37.8014 26.1263 35.7855 27.4851C36.4405 28.4507 36.6629 29.4793 36.5111 30.5173C36.3273 31.773 35.6123 32.9411 34.7054 33.9626C33.1108 35.7589 30.7336 37.31 28.7142 38.3406C28.875 38.6611 28.9849 38.9831 29.0345 39.3064C29.1288 39.9216 28.9999 40.4893 28.6957 40.9812C28.1234 41.9064 26.9841 42.4841 25.808 42.8679C23.5647 43.5999 20.4958 43.8361 18.1996 43.8445C16.6895 46.9102 15.9125 49.3251 15.7689 50.8142C15.7321 51.197 15.7408 51.4898 15.7758 51.7C15.8071 51.888 15.8545 51.9708 15.8734 51.9978H15.8754C15.927 52.0008 16.0653 51.9888 16.3138 51.8738C19.1343 50.568 21.1914 49.6281 22.9711 49.3757C24.8666 49.1071 26.4125 49.6132 28.2045 50.95C29.3216 51.7833 30.9308 52.0382 32.6068 51.9519C34.2636 51.8665 35.8493 51.4544 36.7836 51.1072C37.195 50.9545 37.6529 51.1647 37.806 51.5759C37.9588 51.9875 37.7489 52.4454 37.3373 52.5984C36.2745 52.9934 34.5299 53.4459 32.6888 53.5408C30.8668 53.6346 28.8081 53.3852 27.2533 52.2253C25.7055 51.0708 24.5728 50.7547 23.1947 50.95C21.7007 51.1618 19.8867 51.9723 16.9818 53.3171C16.5976 53.495 16.1894 53.6101 15.7836 53.5867C15.3503 53.5615 14.9611 53.3788 14.6742 53.0466C14.4061 52.7361 14.2705 52.346 14.2064 51.9617C14.1416 51.5722 14.1406 51.1321 14.1859 50.6619C14.3446 49.0155 15.1109 46.6379 16.4554 43.7986C20.2477 36.7322 22.599 32.3223 29.975 26.4421C30.3181 26.1683 30.3747 25.6673 30.101 25.324C29.8273 24.9811 29.3271 24.9249 28.9838 25.198C21.9883 30.7748 19.3238 35.1447 15.9935 41.3025C14.6872 37.9766 14.7411 34.8034 15.7885 31.8503C17.0455 28.3065 19.708 25.1456 22.9916 22.4148C29.5562 16.9553 38.8363 13.0214 45.3676 11.0613Z" fill="white"/>
<path d="M12.2476 15.7468C10.2328 16.436 8.56801 19.7869 9.54357 25.7675C14.2093 21.5683 13.2903 17.3374 12.2476 15.7468Z" fill="white" stroke="white" stroke-width="1.06039" stroke-linecap="round" stroke-linejoin="round"/>
<path d="M44.3676 22.8588C42.7054 23.2347 41.1963 25.5147 41.6932 29.8037C45.6694 27.0902 45.1329 24.0432 44.3676 22.8588Z" fill="white" stroke="white" stroke-width="1.06039" stroke-linecap="round" stroke-linejoin="round"/>
<path d="M47.3274 28.5326C45.3317 28.1844 42.6539 29.9723 41.285 34.8534C46.8695 33.7173 47.6401 30.1662 47.3274 28.5326Z" fill="white" stroke="white" stroke-width="1.06039" stroke-linecap="round" stroke-linejoin="round"/>
<path d="M48.0887 35.311C44.3774 34.3036 41.7794 36.2123 39.8312 40.2578C45.2257 40.4539 47.751 36.8984 48.0887 35.311Z" fill="white" stroke="white" stroke-width="1.06039" stroke-linecap="round" stroke-linejoin="round"/>
<path d="M46.6042 42.6807C43.5224 40.8452 41.4664 41.286 38.5619 43.3422C42.2263 45.5502 45.7603 43.6515 46.6042 42.6807Z" fill="white" stroke="white" stroke-width="1.06039" stroke-linecap="round" stroke-linejoin="round"/>
<path d="M42.5861 47.7442C39.9972 45.2616 37.8948 45.2277 34.6016 46.5765C37.6743 49.5535 41.5452 48.4999 42.5861 47.7442Z" fill="white" stroke="white" stroke-width="1.06039" stroke-linecap="round" stroke-linejoin="round"/>
<path d="M5.80702 21.1149C4.37964 22.4558 3.60532 26.8809 7.42273 30.2211C9.54351 24.8131 7.28346 22.0529 5.80702 21.1149Z" fill="white" stroke="white" stroke-width="1.06039" stroke-linecap="round" stroke-linejoin="round"/>
<path d="M2.10265 27.9529C1.29731 29.7381 2.27595 34.1225 7.08125 35.747C6.97024 29.9391 3.82571 28.2543 2.10265 27.9529Z" fill="white" stroke="white" stroke-width="1.06039" stroke-linecap="round" stroke-linejoin="round"/>
<path d="M0.795355 35.6291C0.901072 37.5847 3.19107 40.6465 8.20518 39.8794C5.19597 35.2049 2.46402 35.1044 0.795355 35.6291Z" fill="white" stroke="white" stroke-width="1.06039" stroke-linecap="round" stroke-linejoin="round"/>
<path d="M2.07178 42.0964C2.84557 43.8955 5.83215 45.1726 10.4929 43.5299C7.52876 40.9311 3.45703 41.0283 2.07178 42.0964Z" fill="white" stroke="white" stroke-width="1.06039" stroke-linecap="round" stroke-linejoin="round"/>
<path d="M6.00409 48.064C7.53784 49.2818 12.3536 49.7323 14.0994 45.337C10.2578 44.4525 6.71803 46.4671 6.00409 48.064Z" fill="white" stroke="white" stroke-width="1.06039" stroke-linecap="round" stroke-linejoin="round"/>
<path d="M31.4636 14.0498C31.3539 14.3369 31.0783 14.5273 30.7703 14.5273H17.8494C17.5023 14.5273 17.2223 14.2912 17.1375 13.9805L17.0115 13.5195H31.6667L31.4636 14.0498ZM25.0535 0C25.3574 0.000124437 25.6259 0.184749 25.739 0.458008L25.7781 0.580078L26.9421 5.79688L29.3601 7.57422L33.8298 3.98828L33.9431 3.91113C34.5206 3.59092 35.2404 4.1692 34.9871 4.83203L31.99 12.6719H16.781L14.6404 4.82227C14.4402 4.08796 15.3434 3.56356 15.8816 4.10156L19.3582 7.58008L22.5115 5.75879L23.8386 0.558594L23.8796 0.44043C23.9971 0.176286 24.2606 8.14318e-05 24.5574 0H25.0535Z" fill="white"/>
</svg>
