<svg width="60" height="60" viewBox="0 0 60 60" fill="none" xmlns="http://www.w3.org/2000/svg">
<circle cx="30" cy="30" r="30" fill="#E0E0E0"/>
<path d="M29.5016 43C22.3794 43 18.772 41.1522 18.772 37.5101C18.772 34.7669 22.732 33.1653 26.1257 32.6266L26.0723 32.2913C23.8929 30.6718 22.821 27.6433 22.821 23.0916C22.821 18.6504 25.2782 16 29.3984 16H29.612C33.7322 16 36.1894 18.6504 36.1894 23.0916C36.1894 24.761 36.1894 29.8371 32.8847 32.4625L32.9381 32.6873C36.2749 33.1688 40.2348 34.7705 40.2348 37.5137C40.2313 41.1522 36.6203 43 29.5016 43ZM29.3912 18.0654C27.2724 18.0654 24.7511 18.9215 24.7511 22.9917C24.7511 26.9941 25.6699 29.5624 27.5608 30.8537C27.86 31.0606 28.0451 31.4316 28.0451 31.824V33.6861C28.0558 34.2568 27.6677 34.7455 27.1406 34.8169C23.1771 35.2628 20.6523 36.918 20.6523 37.6314C20.6523 40.3603 25.4669 40.931 29.5016 40.931C33.5364 40.931 38.3474 40.3567 38.3474 37.6314C38.3474 36.9144 35.8226 35.2628 31.8627 34.8169C31.332 34.742 30.9332 34.2354 30.9581 33.6611L30.9937 31.8026C30.9973 31.4209 31.1754 31.0678 31.4745 30.8573C33.369 29.5624 34.2522 27.0654 34.2522 22.9952C34.2522 18.9251 31.7273 18.069 29.6085 18.069H29.3912V18.0654ZM44.0915 35.3983C43.5787 35.3805 43.1763 34.9203 43.187 34.371C43.187 33.9679 41.3744 32.4376 38.935 32.1451C38.4614 32.0737 38.1124 31.635 38.1231 31.1213V29.4233C38.1231 29.0737 38.2798 28.7527 38.5397 28.5636C40.3203 27.2687 40.5126 24.3543 40.5126 23.1593C40.5126 20.4982 38.9386 19.9382 37.621 19.9382C37.1082 19.9239 36.7022 19.4637 36.7164 18.9144C36.7093 18.654 36.7984 18.4007 36.9693 18.2081C37.1402 18.0119 37.3681 17.9013 37.6174 17.8977C40.5233 17.8977 42.3252 19.9132 42.3252 23.1629C42.3252 24.5826 42.0866 28.0892 39.8645 30.0155L39.925 30.3044C41.8551 30.6825 44.9996 32.1914 44.9996 34.3817C45.0067 34.6457 44.9177 34.8989 44.7468 35.0916C44.5758 35.2842 44.3479 35.3948 44.0986 35.4019H44.0915V35.3983ZM14.9082 35.3983C14.6589 35.3912 14.4274 35.2806 14.2565 35.088C14.0856 34.8954 13.9965 34.6421 14.0001 34.371C14.0001 32.1879 17.1374 30.6825 19.1139 30.2438L19.064 29.8549C16.9095 28.0856 16.6745 24.5826 16.6745 23.1629C16.6745 19.9168 18.4764 17.8977 21.3787 17.8977C21.628 17.9049 21.863 18.0155 22.034 18.2081C22.2013 18.3971 22.2939 18.6611 22.2868 18.9251C22.3011 19.4673 21.8951 19.9239 21.3859 19.9382C20.0611 19.9382 18.4871 20.4982 18.4871 23.1593C18.4871 24.3543 18.6794 27.2687 20.46 28.5636C20.7235 28.7562 20.8802 29.0809 20.8766 29.4233V31.1284C20.8873 31.6385 20.5419 32.0737 20.0718 32.1451C17.6289 32.4376 15.8127 33.975 15.8127 34.3781C15.827 34.9239 15.4245 35.3841 14.9117 35.4019H14.9082V35.3983Z" fill="white"/>
</svg>
