<svg width="60" height="60" viewBox="0 0 60 60" fill="none" xmlns="http://www.w3.org/2000/svg">
<circle cx="30" cy="30" r="30" fill="url(#paint0_linear_422_9)"/>
<path d="M29.0996 41.6658C21.6188 41.6658 15.5327 35.5798 15.5327 28.0992C15.5327 20.6188 21.6188 14.5327 29.0996 14.5327C36.5804 14.5327 42.6667 20.6188 42.6667 28.0992C42.6667 35.5797 36.5804 41.6658 29.0996 41.6658ZM29.0996 17.872C23.46 17.872 18.8722 22.46 18.8722 28.0992C18.8722 33.7386 23.46 38.3266 29.0996 38.3266C34.7391 38.3266 39.3272 33.7386 39.3272 28.0992C39.3272 22.46 34.7391 17.872 29.0996 17.872Z" fill="white"/>
<path d="M44.9448 45.999C44.4187 45.999 43.893 45.7983 43.4916 45.3972L36.4036 38.3098C35.6011 37.5073 35.6011 36.2061 36.4036 35.4034C37.2064 34.6012 38.5074 34.6012 39.3101 35.4034L46.398 42.4909C47.2005 43.2934 47.2005 44.5945 46.398 45.3971C45.9966 45.7983 45.4709 45.999 44.9448 45.999Z" fill="white"/>
<defs>
<linearGradient id="paint0_linear_422_9" x1="0" y1="30" x2="60" y2="30" gradientUnits="userSpaceOnUse">
<stop stop-color="#EFAF00"/>
<stop offset="1" stop-color="#FF9500"/>
</linearGradient>
</defs>
</svg>
