<svg width="60" height="60" viewBox="0 0 60 60" fill="none" xmlns="http://www.w3.org/2000/svg">
<circle cx="30" cy="30" r="30" fill="#E0E0E0"/>
<path d="M45.8234 23.8383L37.1628 15.1766C36.88 14.8937 36.508 14.9577 36.3355 15.3181L35.175 17.7364L43.264 25.8264L45.6819 24.6657C46.0423 24.4932 46.1063 24.1192 45.8234 23.8383ZM33.6289 19.0986L25.6561 19.7632C25.1272 19.8291 24.6855 19.9415 24.5324 20.6333V20.6352C22.3702 31.0214 15 41.1576 15 41.1576L16.736 42.8938L24.9703 34.6585C24.6748 34.0398 24.6075 33.3365 24.7803 32.673C24.9532 32.0095 25.355 31.4284 25.9147 31.0326C26.4745 30.6367 27.1562 30.4515 27.8393 30.5096C28.5224 30.5678 29.1629 30.8656 29.6477 31.3505C30.1325 31.8353 30.4303 32.4759 30.4884 33.1591C30.5466 33.8423 30.3614 34.5241 29.9656 35.0839C29.5697 35.6437 28.9888 36.0456 28.3253 36.2184C27.6619 36.3913 26.9587 36.324 26.3401 36.0285L18.1058 44.2638L19.8418 46C19.8418 46 29.9767 38.6289 40.3616 36.4664H40.3636C41.0552 36.3153 41.1676 35.8735 41.2335 35.3425L41.898 27.3688L33.6269 19.0967L33.6289 19.0986Z" fill="white"/>
</svg>
