<svg width="60" height="60" viewBox="0 0 60 60" fill="none" xmlns="http://www.w3.org/2000/svg">
<circle cx="30" cy="30" r="30" fill="#E0E0E0"/>
<path d="M45.6887 43.1728L40.4335 37.8398C40.0143 37.4139 39.3293 37.4093 38.9044 37.8285C38.479 38.2476 38.4739 38.9323 38.8932 39.3576L44.1484 44.6906C44.3599 44.9055 44.6393 45.0131 44.9186 45.0131C45.1928 45.0131 45.467 44.9096 45.6775 44.7019C46.1029 44.2829 46.108 43.5982 45.6887 43.1728Z" fill="white"/>
<path d="M43.3744 32.6224C44.4359 32.0011 44.7541 31.2505 44.834 30.7304C44.9123 30.2214 44.8391 29.431 44.0455 28.5547C42.4934 26.8429 39.8979 24.0991 39.1214 23.2798C38.9279 22.1657 38.2757 18.4332 37.8217 16.1417C37.6531 15.2932 37.1579 14.6049 36.4628 14.2534C35.774 13.9051 34.9608 13.9162 34.1725 14.2852C32.0547 15.2795 28.6218 16.967 27.6091 17.4658C26.4734 17.3281 22.5887 16.861 20.3026 16.6298C19.5657 16.5546 18.8414 16.8154 18.3159 17.3433C17.7629 17.8986 17.4815 18.6911 17.5628 19.4635C17.8073 21.7873 18.2897 25.6752 18.4303 26.8008C17.9438 27.8269 16.2651 31.3762 15.2964 33.5234C14.8173 34.5813 15.0072 35.3689 15.251 35.8432C15.5757 36.4751 16.1887 36.9223 16.9364 37.071C19.1728 37.5079 23.0934 38.1909 24.2439 38.3903C25.0738 39.1837 27.8706 41.8521 29.562 43.4016C30.2461 44.0289 30.8786 44.1959 31.3586 44.1959C31.4749 44.1959 31.5823 44.1861 31.6793 44.1708C32.1766 44.0914 32.8884 43.7855 33.4535 42.7805C34.6077 40.7352 36.4907 37.2173 37.0344 36.1992C38.0174 35.6553 41.3475 33.8079 43.374 32.6228C43.3741 32.6226 43.3743 32.6226 43.3744 32.6224ZM42.2818 30.7561C39.9194 32.1375 35.7506 34.4377 35.7089 34.4607C35.5254 34.5619 35.3751 34.7143 35.2767 34.8995C35.2531 34.9437 32.9103 39.3426 31.5694 41.719C31.4673 41.9003 31.3814 41.9908 31.3374 42.0258C31.285 42.0061 31.1759 41.9471 31.0234 41.8074C29.0477 39.9972 25.5366 36.634 25.5014 36.6002C25.3458 36.4511 25.1491 36.3519 24.9366 36.3152C24.8872 36.3068 19.9558 35.457 17.3547 34.9491C17.2537 34.9291 17.1887 34.8819 17.1748 34.8548C17.159 34.824 17.1445 34.6851 17.2674 34.4141C18.395 31.9143 20.4981 27.4879 20.5192 27.4434C20.6079 27.257 20.6412 27.049 20.6154 26.8441C20.6093 26.7953 19.9982 21.9407 19.7136 19.2371C19.7004 19.1113 19.7546 18.9635 19.8484 18.8693C19.9216 18.7958 19.9912 18.7796 20.0485 18.7796C20.0614 18.7796 20.0735 18.7803 20.0851 18.7815C22.7482 19.0508 27.6185 19.6455 27.6674 19.6515C27.8758 19.6767 28.0886 19.6408 28.2774 19.5477C28.3206 19.5264 32.6178 17.4045 35.0908 16.2432C35.2603 16.1637 35.4046 16.1421 35.4868 16.1832C35.5803 16.2306 35.664 16.3797 35.7005 16.5627C36.2306 19.2391 37.0379 23.9232 37.046 23.9702C37.0822 24.181 37.1805 24.3764 37.3278 24.5315C37.3607 24.566 40.6283 28.0057 42.4429 30.007C42.6465 30.2318 42.6951 30.3743 42.6972 30.3983C42.6863 30.4344 42.5868 30.5775 42.2818 30.7561Z" fill="white"/>
<path d="M24.846 28.7981C24.4247 28.375 23.7399 28.3734 23.3168 28.7951C22.8937 29.2165 22.8922 29.9011 23.3138 30.3244L24.0989 31.1127C24.3101 31.3248 24.5875 31.4309 24.8651 31.4309C25.141 31.4309 25.4172 31.3258 25.6282 31.1157C26.0513 30.6943 26.0527 30.0095 25.6312 29.5864L24.846 28.7981Z" fill="white"/>
<path d="M30.3813 24.8058C30.5927 25.0179 30.8701 25.124 31.1475 25.124C31.4234 25.124 31.6996 25.0189 31.9106 24.8088C32.3337 24.3873 32.3351 23.7026 31.9136 23.2795L31.1283 22.4912C30.7066 22.0681 30.0221 22.0669 29.599 22.4882C29.1759 22.9097 29.1745 23.5944 29.596 24.0175L30.3813 24.8058Z" fill="white"/>
<path d="M32.317 27.0472C31.7335 27.1747 31.3638 27.7509 31.491 28.3343C31.4929 28.343 31.654 29.2195 31.1001 29.7754C30.5626 30.3147 29.7486 30.1616 29.6938 30.1505C29.1166 30.0218 28.5405 30.3814 28.405 30.959C28.2688 31.5404 28.6296 32.1222 29.211 32.2586C29.4189 32.3074 29.6907 32.3421 29.9987 32.3421C30.7914 32.3421 31.8249 32.1124 32.6323 31.3017C33.7461 30.1838 33.7672 28.6205 33.604 27.8733C33.4765 27.2896 32.9 26.9205 32.317 27.0472Z" fill="white"/>
</svg>
