<svg width="60" height="60" viewBox="0 0 60 60" fill="none" xmlns="http://www.w3.org/2000/svg">
<circle cx="30" cy="30" r="30" fill="url(#paint0_linear_422_305)"/>
<path d="M18.3333 33.3333V19.3333H32.3333V24H34.6667V19.3333C34.6667 19.0269 34.6063 18.7235 34.4891 18.4404C34.3718 18.1573 34.1999 17.9001 33.9832 17.6834C33.7666 17.4667 33.5094 17.2949 33.2263 17.1776C32.9432 17.0604 32.6397 17 32.3333 17H18.3333C17.7145 17 17.121 17.2458 16.6834 17.6834C16.2458 18.121 16 18.7145 16 19.3333V33.3333C16 33.6397 16.0604 33.9432 16.1776 34.2263C16.2949 34.5094 16.4667 34.7666 16.6834 34.9832C16.9001 35.1999 17.1573 35.3718 17.4404 35.4891C17.7235 35.6063 18.0269 35.6667 18.3333 35.6667H23V33.3333H18.3333ZM41.6667 26.3333H37V28.6667H41.6667V42.6667H27.6667V38H25.3333V42.6667C25.3333 42.9731 25.3937 43.2765 25.5109 43.5596C25.6282 43.8427 25.8001 44.0999 26.0168 44.3166C26.2334 44.5333 26.4906 44.7051 26.7737 44.8224C27.0568 44.9396 27.3602 45 27.6667 45H41.6667C42.2855 45 42.879 44.7542 43.3166 44.3166C43.7542 43.879 44 43.2855 44 42.6667V28.6667C44 28.3602 43.9396 28.0568 43.8224 27.7737C43.7051 27.4906 43.5333 27.2334 43.3166 27.0168C43.0999 26.8001 42.8427 26.6282 42.5596 26.5109C42.2765 26.3937 41.9731 26.3333 41.6667 26.3333Z" fill="white"/>
<path d="M34.667 33.3337V28.667H32.3337V33.3337H27.667V35.667H32.3337C32.6401 35.667 32.9435 35.6066 33.2266 35.4894C33.5097 35.3721 33.7669 35.2002 33.9836 34.9836C34.2002 34.7669 34.3721 34.5097 34.4894 34.2266C34.6066 33.9435 34.667 33.6401 34.667 33.3337Z" fill="white"/>
<path d="M27.6663 28.6663H32.333V26.333H27.6663C27.3599 26.333 27.0565 26.3934 26.7734 26.5106C26.4903 26.6279 26.2331 26.7998 26.0164 27.0164C25.7998 27.2331 25.6279 27.4903 25.5106 27.7734C25.3934 28.0565 25.333 28.3599 25.333 28.6663V33.333H27.6663V28.6663ZM25.333 33.333H27.6663V35.6663H25.333V33.333ZM32.333 26.333H34.6663V28.6663H32.333V26.333Z" fill="white"/>
<defs>
<linearGradient id="paint0_linear_422_305" x1="0" y1="30" x2="60" y2="30" gradientUnits="userSpaceOnUse">
<stop stop-color="#EFAF00"/>
<stop offset="1" stop-color="#FF9500"/>
</linearGradient>
</defs>
</svg>
