<svg width="60" height="60" viewBox="0 0 60 60" fill="none" xmlns="http://www.w3.org/2000/svg">
<circle cx="30" cy="30" r="30" fill="#E0E0E0"/>
<path d="M29.0996 41.6659C21.6188 41.6659 15.5327 35.5799 15.5327 28.0993C15.5327 20.6189 21.6188 14.5328 29.0996 14.5328C36.5804 14.5328 42.6667 20.6189 42.6667 28.0993C42.6667 35.5798 36.5804 41.6659 29.0996 41.6659ZM29.0996 17.8721C23.46 17.8721 18.8722 22.4601 18.8722 28.0993C18.8722 33.7386 23.46 38.3267 29.0996 38.3267C34.7391 38.3267 39.3272 33.7386 39.3272 28.0993C39.3272 22.4601 34.7391 17.8721 29.0996 17.8721Z" fill="white"/>
<path d="M44.9448 45.9991C44.4187 45.9991 43.893 45.7984 43.4916 45.3973L36.4036 38.3099C35.6011 37.5074 35.6011 36.2063 36.4036 35.4036C37.2064 34.6013 38.5074 34.6013 39.3101 35.4036L46.398 42.491C47.2005 43.2935 47.2005 44.5947 46.398 45.3973C45.9966 45.7984 45.4709 45.9991 44.9448 45.9991Z" fill="white"/>
</svg>
