<svg width="60" height="60" viewBox="0 0 60 60" fill="none" xmlns="http://www.w3.org/2000/svg">
<circle cx="30" cy="30" r="30" fill="#E0E0E0"/>
<path d="M27.7073 16.6936C28.5658 16.2383 29.5256 16 30.5006 16C31.4756 16 32.4354 16.2383 33.2939 16.6936L46.3812 23.6365C46.5683 23.736 46.7246 23.8835 46.8335 24.0633C46.9425 24.2432 47 24.4487 47 24.6582C47 24.8676 46.9425 25.0732 46.8335 25.2531C46.7246 25.4329 46.5683 25.5804 46.3812 25.6799L43.4653 27.2275V36.1732C43.4653 37.1922 43.193 38.1933 42.6758 39.0757C42.1585 39.9582 41.4146 40.691 40.5188 41.2005L33.4471 45.2223C32.5512 45.7318 31.535 46 30.5006 46C29.4661 46 28.4499 45.7318 27.554 45.2223L20.4824 41.2016C19.5865 40.6921 18.8426 39.9593 18.3254 39.0769C17.8082 38.1944 17.5359 37.1934 17.5358 36.1744V27.2275L16.3572 26.6017V35.1074C16.3572 35.4153 16.2331 35.7106 16.012 35.9284C15.791 36.1461 15.4912 36.2684 15.1786 36.2684C14.866 36.2684 14.5662 36.1461 14.3452 35.9284C14.1242 35.7106 14 35.4153 14 35.1074V24.6582C14.0001 24.4486 14.0578 24.243 14.167 24.0631C14.2761 23.8832 14.4326 23.7358 14.6199 23.6365L27.7073 16.6936ZM19.8931 28.478V36.1732C19.8929 36.7848 20.0562 37.3857 20.3665 37.9154C20.6768 38.4451 21.1233 38.8849 21.661 39.1907L28.7327 43.2114C29.2702 43.5171 29.8799 43.678 30.5006 43.678C31.1212 43.678 31.731 43.5171 32.2685 43.2114L39.3402 39.1907C39.8778 38.8849 40.3243 38.4451 40.6346 37.9154C40.945 37.3857 41.1083 36.7848 41.1081 36.1732V28.478L33.2939 32.6228C32.4354 33.0781 31.4756 33.3164 30.5006 33.3164C29.5256 33.3164 28.5658 33.0781 27.7073 32.6228L19.8931 28.478ZM32.1766 18.7393C31.6614 18.4661 31.0856 18.3232 30.5006 18.3232C29.9156 18.3232 29.3397 18.4661 28.8246 18.7393L17.6643 24.6582L28.8246 30.5771C29.3397 30.8503 29.9156 30.9932 30.5006 30.9932C31.0856 30.9932 31.6614 30.8503 32.1766 30.5771L43.3368 24.6582L32.1766 18.7393Z" fill="white"/>
</svg>
