<svg width="118" height="111" viewBox="0 0 118 111" fill="none" xmlns="http://www.w3.org/2000/svg">
<path d="M44.9118 110.135C55.2286 106.046 52.9682 94.7691 47.7519 87.6409C42.5935 80.3375 35.4645 75.3128 28.2775 70.4633C23.1486 67.2065 18.5698 63.1431 14.715 58.4273C13.0922 56.4992 9.7885 52.9351 13.1501 52.234C16.5697 51.5329 22.4816 54.9217 25.4955 56.2071C29.8284 58.031 34.1222 60.0916 38.2162 62.4535C39.6771 63.2963 41.5607 62.8385 42.417 61.3854L45.2665 56.5506C46.0754 55.1781 45.6736 53.4087 44.3204 52.5679C35.6783 47.1985 25.1476 42.6331 15.2946 41.1912C9.15094 40.2564 2.6595 41.5418 0.572965 48.2609C-1.28173 54.0452 1.67419 59.888 5.03583 64.4453C12.9763 75.1375 25.3216 80.2791 34.5371 89.5106C36.5077 91.4387 38.8841 93.7174 40.0433 96.405C41.2604 98.9758 40.9706 99.1511 38.2465 99.1511C32.0648 99.1511 24.5537 94.9582 18.8484 91.4057C17.4061 90.5076 15.5058 90.9596 14.6431 92.4233L11.8582 97.1486C11.03 98.5539 11.4726 100.366 12.8706 101.206C21.8453 106.601 35.0381 113.436 44.9118 110.135ZM96.2057 29.029C97.3616 30.1993 97.3595 32.0821 96.2011 33.2499L66.3096 63.3828C65.7463 63.9506 64.9796 64.27 64.1797 64.27H55.1568C53.4999 64.27 52.1568 62.9269 52.1568 61.27V52.1242C52.1568 51.3337 52.4688 50.5751 53.0251 50.0133L82.8852 19.859C84.0602 18.6724 85.9779 18.6737 87.1514 19.8617L96.2057 29.029ZM117.999 26.5844C117.941 28.3372 116.144 30.1485 114.289 31.9597L101.813 44.5863C100.64 45.7733 98.7245 45.7752 97.5493 44.5906L96.7408 43.7755C95.579 42.6043 95.5808 40.7148 96.7449 39.5459L108.009 28.2341C108.95 27.2891 108.952 25.7615 108.013 24.8146C107.064 23.8582 105.518 23.8582 104.569 24.8146L104.349 25.0361C103.279 26.1145 101.536 26.1145 100.466 25.0361L91.2307 15.7263C90.0704 14.5567 90.0704 12.6704 91.2307 11.5008L101.596 1.05169C102.987 -0.350564 105.247 -0.350564 106.581 1.05169L114.869 9.40679C116.26 10.6922 116.26 13.0293 114.869 14.4315C113.652 15.6585 112.492 16.8271 112.492 17.9956C112.376 19.1642 113.536 20.4496 114.695 21.4428C116.376 23.1956 118.057 24.8316 117.999 26.5844Z" fill="url(#paint0_linear_326_9400)"/>
<defs>
<linearGradient id="paint0_linear_326_9400" x1="0" y1="55.5" x2="118" y2="55.5" gradientUnits="userSpaceOnUse">
<stop stop-color="#EFAF00"/>
<stop offset="1" stop-color="#FF9500"/>
</linearGradient>
</defs>
</svg>
