<svg width="36" height="36" viewBox="0 0 36 36" fill="none" xmlns="http://www.w3.org/2000/svg">
<path d="M32.0413 33.7504C30.7552 32.8765 28.7599 32.9503 25.9641 34.1464C23.4876 35.3694 20.762 36.0038 18 36C8.05905 36 0 27.9409 0 18C0 8.05905 8.05905 0 18 0C27.9409 0 36 8.05905 36 18C36.0037 20.777 35.3624 23.5169 34.1266 26.0037C33.9642 26.319 33.6842 26.5577 33.3471 26.6682C33.0101 26.7787 32.6431 26.7521 32.3255 26.5942C32.0079 26.4363 31.7652 26.1598 31.6499 25.8243C31.5346 25.4889 31.5559 25.1216 31.7092 24.8017C32.7593 22.6883 33.3038 20.3599 33.3 18C33.3 9.5499 26.4501 2.7 18 2.7C9.5499 2.7 2.7 9.5499 2.7 18C2.7 26.4501 9.5499 33.3 18 33.3C20.3922 33.3 22.7034 32.751 24.7972 31.7115L24.8647 31.68C28.44 30.1428 31.369 30.0294 33.5587 31.5171C33.8549 31.7183 34.059 32.0289 34.1261 32.3806C34.1933 32.7323 34.1179 33.0963 33.9167 33.3925C33.8171 33.5391 33.6895 33.6647 33.5414 33.762C33.3932 33.8594 33.2273 33.9266 33.0532 33.9599C32.7015 34.027 32.3375 33.9517 32.0413 33.7504ZM18 13.95C17.2839 13.95 16.5972 13.6655 16.0908 13.1592C15.5845 12.6528 15.3 11.9661 15.3 11.25C15.3 10.5339 15.5845 9.84715 16.0908 9.34081C16.5972 8.83446 17.2839 8.55 18 8.55C18.7161 8.55 19.4028 8.83446 19.9092 9.34081C20.4155 9.84715 20.7 10.5339 20.7 11.25C20.7 11.9661 20.4155 12.6528 19.9092 13.1592C19.4028 13.6655 18.7161 13.95 18 13.95ZM24.75 20.7C24.0339 20.7 23.3471 20.4155 22.8408 19.9092C22.3345 19.4028 22.05 18.7161 22.05 18C22.05 17.2839 22.3345 16.5972 22.8408 16.0908C23.3471 15.5845 24.0339 15.3 24.75 15.3C25.4661 15.3 26.1528 15.5845 26.6592 16.0908C27.1655 16.5972 27.45 17.2839 27.45 18C27.45 18.7161 27.1655 19.4028 26.6592 19.9092C26.1528 20.4155 25.4661 20.7 24.75 20.7ZM18 27.45C17.2839 27.45 16.5972 27.1655 16.0908 26.6592C15.5845 26.1528 15.3 25.4661 15.3 24.75C15.3 24.0339 15.5845 23.3471 16.0908 22.8408C16.5972 22.3345 17.2839 22.05 18 22.05C18.7161 22.05 19.4028 22.3345 19.9092 22.8408C20.4155 23.3471 20.7 24.0339 20.7 24.75C20.7 25.4661 20.4155 26.1528 19.9092 26.6592C19.4028 27.1655 18.7161 27.45 18 27.45ZM11.25 20.7C10.5339 20.7 9.84715 20.4155 9.34081 19.9092C8.83446 19.4028 8.55 18.7161 8.55 18C8.55 17.2839 8.83446 16.5972 9.34081 16.0908C9.84715 15.5845 10.5339 15.3 11.25 15.3C11.9661 15.3 12.6528 15.5845 13.1592 16.0908C13.6655 16.5972 13.95 17.2839 13.95 18C13.95 18.7161 13.6655 19.4028 13.1592 19.9092C12.6528 20.4155 11.9661 20.7 11.25 20.7Z" fill="url(#paint0_linear_581_7620)"/>
<defs>
<linearGradient id="paint0_linear_581_7620" x1="0" y1="18" x2="36" y2="18" gradientUnits="userSpaceOnUse">
<stop stop-color="#EFAF00"/>
<stop offset="1" stop-color="#FF9500"/>
</linearGradient>
</defs>
</svg>
