<svg width="49" height="49" viewBox="0 0 49 49" fill="none" xmlns="http://www.w3.org/2000/svg">
<path d="M42.8721 41.8367C39.4079 43.5534 32.337 46.1372 29.9213 46.1372C27.5763 46.1372 27.9494 42.7098 25.3912 42.4738C22.5132 42.2083 14.2239 48.1365 12.7601 47.1991C11.2489 46.2312 14.2804 38.8986 18.919 31.3774M26.4038 21.0773C23.7548 24.0957 21.1509 27.7584 18.919 31.3774M18.919 31.3774C27.9515 31.1296 43.2452 29.4236 32.1597 24.5815C38.7506 22.5993 49.1823 18.3271 38.1821 17.0954C42.2326 15.3079 49.5874 10.6924 46.6028 6.52988C43.4978 2.19945 24.7444 6.87932 19.9065 21.3959M18.919 31.3774C18.5217 27.6462 18.9315 24.3213 19.9065 21.3959M19.9065 21.3959C20.4045 19.1306 19.4455 14.3876 17.8232 12.1577C15.4653 8.91684 5.72513 4.77782 4.07297 1.80461C2.73515 -0.602899 -0.559551 6.21466 2.67758 9.29071M19.9065 21.3959C13.5148 25.3885 10.063 23.0738 9.13604 21.4173M6.15149 10.6711C4.55948 10.5297 3.43821 10.0135 2.67758 9.29071M2.67758 9.29071C1.32422 11.5221 0.252925 15.6674 4.92569 16.8018M7.75036 17.0954C6.6341 17.0954 5.70086 16.99 4.92569 16.8018M4.92569 16.8018C4.63037 18.6062 5.17003 21.6965 9.13604 21.4173M11.0547 21.0773C10.3401 21.2686 9.70303 21.3774 9.13604 21.4173" stroke="white" stroke-width="2.59822" stroke-linecap="round" stroke-linejoin="round"/>
</svg>
